<svg xmlns="http://www.w3.org/2000/svg" xmlns:xlink="http://www.w3.org/1999/xlink" xmlns:s="https://github.com/nturley/netlistsvg" width="429" height="288">
  <style>svg {
    stroke:#000;
    fill:none;
  }
  text {
    fill:#000;
    stroke:none;
    font-size:10px;
    font-weight: bold;
    font-family: "Courier New", monospace;
  }
  .nodelabel {
    text-anchor: middle;
  }
  .inputPortLabel {
    text-anchor: end;
  }
  .splitjoinBody {
    fill:#000;
  }</style>
  <g s:type="inputExt" transform="translate(134,16)" s:width="30" s:height="20">
    <text x="15" y="-4" class="nodelabel" s:attribute="ref">v7ecf50</text>
    <s:alias val="$_inputExt_"/>
    <path d="M0,0 L0,20 L15,20 L30,10 L15,0 Z"/>
    <g s:x="28" s:y="10" s:pid="Y"/>
  </g>
  <g s:type="inputExt" transform="translate(134,75)" s:width="30" s:height="20">
    <text x="15" y="-4" class="nodelabel" s:attribute="ref">v9769fd</text>
    <s:alias val="$_inputExt_"/>
    <path d="M0,0 L0,20 L15,20 L30,10 L15,0 Z"/>
    <g s:x="28" s:y="10" s:pid="Y"/>
  </g>
  <g s:type="inputExt" transform="translate(134,197)" s:width="30" s:height="20">
    <text x="15" y="-4" class="nodelabel" s:attribute="ref">v7729df</text>
    <s:alias val="$_inputExt_"/>
    <path d="M0,0 L0,20 L15,20 L30,10 L15,0 Z"/>
    <g s:x="28" s:y="10" s:pid="Y"/>
  </g>
  <g s:type="inputExt" transform="translate(134,256)" s:width="30" s:height="20">
    <text x="15" y="-4" class="nodelabel" s:attribute="ref">v590d85</text>
    <s:alias val="$_inputExt_"/>
    <path d="M0,0 L0,20 L15,20 L30,10 L15,0 Z"/>
    <g s:x="28" s:y="10" s:pid="Y"/>
  </g>
  <g s:type="outputExt" transform="translate(366,55)" s:width="30" s:height="20">
    <text x="15" y="-4" class="nodelabel" s:attribute="ref">v948ccf</text>
    <s:alias val="$_outputExt_"/>
    <path d="M30,0 L30,20 L15,20 L0,10 L15,0 Z"/>
    <g s:x="0" s:y="10" s:pid="A"/>
  </g>
  <g s:type="outputExt" transform="translate(366,157)" s:width="30" s:height="20">
    <text x="15" y="-4" class="nodelabel" s:attribute="ref">vccacd7</text>
    <s:alias val="$_outputExt_"/>
    <path d="M30,0 L30,20 L15,20 L0,10 L15,0 Z"/>
    <g s:x="0" s:y="10" s:pid="A"/>
  </g>
  <g s:type="outputExt" transform="translate(77,16)" s:width="30" s:height="20">
    <text x="15" y="-4" class="nodelabel" s:attribute="ref">vinit</text>
    <s:alias val="$_outputExt_"/>
    <path d="M30,0 L30,20 L15,20 L0,10 L15,0 Z"/>
    <g s:x="0" s:y="10" s:pid="A"/>
  </g>
  <g s:type="generic" transform="translate(244,156.5)" s:width="30" s:height="40">
    <text x="15" y="-4" class="nodelabel" s:attribute="ref">main_v553349</text>
    <rect width="30" height="80" s:generic="body"/>
    <g transform="translate(0,10)" s:x="0" s:y="10" s:pid="in0">
      <text x="-3" y="-4" class="inputPortLabel">F</text>
    </g>
    <g transform="translate(0,30)" s:x="0" s:y="10" s:pid="in0">
      <text x="-3" y="-4" class="inputPortLabel">G</text>
    </g>
    <g transform="translate(0,50)" s:x="0" s:y="10" s:pid="in0">
      <text x="-3" y="-4" class="inputPortLabel">H</text>
    </g>
    <g transform="translate(0,70)" s:x="0" s:y="10" s:pid="in0">
      <text x="-3" y="-4" class="inputPortLabel">clk</text>
    </g>
    <g transform="translate(30,10)" s:x="30" s:y="10" s:pid="out0">
      <text x="5" y="-4" style="fill:#000; stroke:none">K</text>
    </g>
  </g>
  <g s:type="generic" transform="translate(244,54.5)" s:width="30" s:height="40">
    <text x="15" y="-4" class="nodelabel" s:attribute="ref">main_vd91f49</text>
    <rect width="30" height="60" s:generic="body"/>
    <g transform="translate(0,10)" s:x="0" s:y="10" s:pid="in0">
      <text x="-3" y="-4" class="inputPortLabel">A</text>
    </g>
    <g transform="translate(0,30)" s:x="0" s:y="10" s:pid="in0">
      <text x="-3" y="-4" class="inputPortLabel">B</text>
    </g>
    <g transform="translate(0,50)" s:x="0" s:y="10" s:pid="in0">
      <text x="-3" y="-4" class="inputPortLabel">C</text>
    </g>
    <g transform="translate(30,10)" s:x="30" s:y="10" s:pid="out0">
      <text x="5" y="-4" style="fill:#000; stroke:none">E</text>
    </g>
  </g>
  <g s:type="constant" transform="translate(12,16)" s:width="30" s:height="20">
    <text x="15" y="-4" class="nodelabel" s:attribute="ref">000</text>
    <s:alias val="$_constant_"/>
    <rect width="30" height="20"/>
    <g s:x="30" s:y="10" s:pid="Y"/>
  </g>
  <line x1="275" y1="65" x2="366" y2="65"/>
  <line x1="275" y1="167" x2="366" y2="167"/>
  <line x1="42" y1="26" x2="77" y2="26"/>
  <line x1="162" y1="26" x2="215" y2="26"/>
  <line x1="215" y1="26" x2="215" y2="167"/>
  <line x1="215" y1="167" x2="244" y2="167"/>
  <line x1="162" y1="26" x2="215" y2="26"/>
  <line x1="215" y1="26" x2="215" y2="65"/>
  <circle cx="215" cy="65" r="2" style="fill:#000"/>
  <line x1="215" y1="65" x2="244" y2="65"/>
  <line x1="162" y1="85" x2="195" y2="85"/>
  <line x1="195" y1="85" x2="195" y2="187"/>
  <circle cx="195" cy="85" r="2" style="fill:#000"/>
  <line x1="195" y1="187" x2="244" y2="187"/>
  <line x1="162" y1="85" x2="244" y2="85"/>
  <line x1="162" y1="207" x2="244" y2="207"/>
  <line x1="162" y1="207" x2="205" y2="207"/>
  <line x1="205" y1="207" x2="205" y2="105"/>
  <circle cx="205" cy="207" r="2" style="fill:#000"/>
  <line x1="205" y1="105" x2="244" y2="105"/>
  <line x1="162" y1="266" x2="195" y2="266"/>
  <line x1="195" y1="266" x2="195" y2="227"/>
  <line x1="195" y1="227" x2="244" y2="227"/>
</svg>
