<svg xmlns="http://www.w3.org/2000/svg" xmlns:xlink="http://www.w3.org/1999/xlink" xmlns:s="https://github.com/nturley/netlistsvg" width="332" height="161">
  <style>svg {
    stroke:#000;
    fill:none;
  }
  text {
    fill:#000;
    stroke:none;
    font-size:10px;
    font-weight: bold;
    font-family: "Courier New", monospace;
  }
  .nodelabel {
    text-anchor: middle;
  }
  .inputPortLabel {
    text-anchor: end;
  }
  .splitjoinBody {
    fill:#000;
  }</style>
  <g s:type="inputExt" transform="translate(12,16)" s:width="30" s:height="20">
    <text x="15" y="-4" class="nodelabel" s:attribute="ref">I0</text>
    <s:alias val="$_inputExt_"/>
    <path d="M0,0 L0,20 L15,20 L30,10 L15,0 Z"/>
    <g s:x="28" s:y="10" s:pid="Y"/>
  </g>
  <g s:type="inputExt" transform="translate(12,75)" s:width="30" s:height="20">
    <text x="15" y="-4" class="nodelabel" s:attribute="ref">I1</text>
    <s:alias val="$_inputExt_"/>
    <path d="M0,0 L0,20 L15,20 L30,10 L15,0 Z"/>
    <g s:x="28" s:y="10" s:pid="Y"/>
  </g>
  <g s:type="inputExt" transform="translate(83,129)" s:width="30" s:height="20">
    <text x="15" y="-4" class="nodelabel" s:attribute="ref">CI</text>
    <s:alias val="$_inputExt_"/>
    <path d="M0,0 L0,20 L15,20 L30,10 L15,0 Z"/>
    <g s:x="28" s:y="10" s:pid="Y"/>
  </g>
  <g s:type="outputExt" transform="translate(284,114)" s:width="30" s:height="20">
    <text x="15" y="-4" class="nodelabel" s:attribute="ref">CO</text>
    <s:alias val="$_outputExt_"/>
    <path d="M30,0 L30,20 L15,20 L0,10 L15,0 Z"/>
    <g s:x="0" s:y="10" s:pid="A"/>
  </g>
  <g s:type="or" transform="translate(219,111.5)" s:width="30" s:height="25">
    <s:alias val="$or"/>
    <s:alias val="$logic_or"/>
    <s:alias val="$_OR_"/>
    <path d="M0,25 L0,25 L15,25 A15 12.5 0 0 0 15,0 L0,0"/>
    <path d="M0,0 A30 25 0 0 1 0,25"/>
    <g s:x="3" s:y="5" s:pid="A"/>
    <g s:x="3" s:y="20" s:pid="B"/>
    <g s:x="30" s:y="12.5" s:pid="Y"/>
  </g>
  <g s:type="and" transform="translate(154,119)" s:width="30" s:height="25">
    <s:alias val="$and"/>
    <s:alias val="$logic_and"/>
    <s:alias val="$_AND_"/>
    <path d="M0,0 L0,25 L15,25 A15 12.5 0 0 0 15,0 Z"/>
    <g s:x="0" s:y="5" s:pid="A"/>
    <g s:x="0" s:y="20" s:pid="B"/>
    <g s:x="30" s:y="12.5" s:pid="Y"/>
  </g>
  <g s:type="or" transform="translate(85,65)" s:width="30" s:height="25">
    <s:alias val="$or"/>
    <s:alias val="$logic_or"/>
    <s:alias val="$_OR_"/>
    <path d="M0,25 L0,25 L15,25 A15 12.5 0 0 0 15,0 L0,0"/>
    <path d="M0,0 A30 25 0 0 1 0,25"/>
    <g s:x="3" s:y="5" s:pid="A"/>
    <g s:x="3" s:y="20" s:pid="B"/>
    <g s:x="30" s:y="12.5" s:pid="Y"/>
  </g>
  <g s:type="and" transform="translate(154,34)" s:width="30" s:height="25">
    <s:alias val="$and"/>
    <s:alias val="$logic_and"/>
    <s:alias val="$_AND_"/>
    <path d="M0,0 L0,25 L15,25 A15 12.5 0 0 0 15,0 Z"/>
    <g s:x="0" s:y="5" s:pid="A"/>
    <g s:x="0" s:y="20" s:pid="B"/>
    <g s:x="30" s:y="12.5" s:pid="Y"/>
  </g>
  <line x1="249" y1="124" x2="284" y2="124"/>
  <line x1="184" y1="131.5" x2="222" y2="131.5"/>
  <line x1="184" y1="46.5" x2="194" y2="46.5"/>
  <line x1="194" y1="46.5" x2="194" y2="116.5"/>
  <line x1="194" y1="116.5" x2="222" y2="116.5"/>
  <line x1="111" y1="139" x2="154" y2="139"/>
  <line x1="115" y1="77.5" x2="129" y2="77.5"/>
  <line x1="129" y1="77.5" x2="129" y2="124"/>
  <line x1="129" y1="124" x2="154" y2="124"/>
  <line x1="40" y1="85" x2="88" y2="85"/>
  <line x1="40" y1="85" x2="58" y2="85"/>
  <line x1="58" y1="85" x2="58" y2="54"/>
  <circle cx="58" cy="85" r="2" style="fill:#000"/>
  <line x1="58" y1="54" x2="154" y2="54"/>
  <line x1="40" y1="26" x2="68" y2="26"/>
  <line x1="68" y1="26" x2="68" y2="70"/>
  <circle cx="68" cy="26" r="2" style="fill:#000"/>
  <line x1="68" y1="70" x2="88" y2="70"/>
  <line x1="40" y1="26" x2="129" y2="26"/>
  <line x1="129" y1="26" x2="129" y2="39"/>
  <line x1="129" y1="39" x2="154" y2="39"/>
</svg>
