<svg xmlns="http://www.w3.org/2000/svg" xmlns:xlink="http://www.w3.org/1999/xlink" xmlns:s="https://github.com/nturley/netlistsvg" width="400" height="303.5">
  <style>svg {
    stroke:#000;
    fill:none;
  }
  text {
    fill:#000;
    stroke:none;
    font-size:10px;
    font-weight: bold;
    font-family: "Courier New", monospace;
  }
  .nodelabel {
    text-anchor: middle;
  }
  .inputPortLabel {
    text-anchor: end;
  }
  .splitjoinBody {
    fill:#000;
  }</style>
  <g s:type="inputExt" transform="translate(197,168)" s:width="30" s:height="20">
    <text x="15" y="-4" class="nodelabel" s:attribute="ref">en</text>
    <s:alias val="$_inputExt_"/>
    <path d="M0,0 L0,20 L15,20 L30,10 L15,0 Z"/>
    <g s:x="28" s:y="10" s:pid="Y"/>
  </g>
  <g s:type="inputExt" transform="translate(12,16.5)" s:width="30" s:height="20">
    <text x="15" y="-4" class="nodelabel" s:attribute="ref">reset</text>
    <s:alias val="$_inputExt_"/>
    <path d="M0,0 L0,20 L15,20 L30,10 L15,0 Z"/>
    <g s:x="28" s:y="10" s:pid="Y"/>
  </g>
  <g s:type="inputExt" transform="translate(12,75.5)" s:width="30" s:height="20">
    <text x="15" y="-4" class="nodelabel" s:attribute="ref">clk</text>
    <s:alias val="$_inputExt_"/>
    <path d="M0,0 L0,20 L15,20 L30,10 L15,0 Z"/>
    <g s:x="28" s:y="10" s:pid="Y"/>
  </g>
  <g s:type="outputExt" transform="translate(333,16.5)" s:width="30" s:height="20">
    <text x="15" y="-4" class="nodelabel" s:attribute="ref">count</text>
    <s:alias val="$_outputExt_"/>
    <path d="M30,0 L30,20 L15,20 L0,10 L15,0 Z"/>
    <g s:x="0" s:y="10" s:pid="A"/>
  </g>
  <g s:type="add" transform="translate(200.66666666666666,104)" s:width="25" s:height="25">
    <s:alias val="$add"/>
    <circle r="12.5" cx="12.5" cy="12.5"/>
    <line x1="7.5" x2="17.5" y1="12.5" y2="12.5"/>
    <line x1="12.5" x2="12.5" y1="7.5" y2="17.5"/>
    <g s:x="3" s:y="5" s:pid="A"/>
    <g s:x="3" s:y="20" s:pid="B"/>
    <g s:x="25" s:y="12.5" s:pid="Y"/>
  </g>
  <g s:type="eq" transform="translate(200.66666666666666,250.5)" s:width="25" s:height="25">
    <s:alias val="$eq"/>
    <circle r="12.5" cx="12.5" cy="12.5"/>
    <line x1="7.5" x2="17.5" y1="10" y2="10"/>
    <line x1="7.5" x2="17.5" y1="15" y2="15"/>
    <g s:x="3" s:y="5" s:pid="A"/>
    <g s:x="3" s:y="20" s:pid="B"/>
    <g s:x="25" s:y="12.5" s:pid="Y"/>
  </g>
  <g s:type="and" transform="translate(268,243)" s:width="30" s:height="25">
    <s:alias val="$and"/>
    <s:alias val="$logic_and"/>
    <s:alias val="$_AND_"/>
    <path d="M0,0 L0,25 L15,25 A15 12.5 0 0 0 15,0 Z"/>
    <g s:x="0" s:y="5" s:pid="A"/>
    <g s:x="0" s:y="20" s:pid="B"/>
    <g s:x="30" s:y="12.5" s:pid="Y"/>
  </g>
  <g s:type="generic" transform="translate(117,16)" s:width="30" s:height="40">
    <text x="15" y="-4" class="nodelabel" s:attribute="ref">$adff</text>
    <rect width="30" height="60" s:generic="body"/>
    <g transform="translate(0,10)" s:x="0" s:y="10" s:pid="in0">
      <text x="-3" y="-4" class="inputPortLabel">ARST</text>
    </g>
    <g transform="translate(0,30)" s:x="0" s:y="10" s:pid="in0">
      <text x="-3" y="-4" class="inputPortLabel">CLK</text>
    </g>
    <g transform="translate(0,50)" s:x="0" s:y="10" s:pid="in0">
      <text x="-3" y="-4" class="inputPortLabel">D</text>
    </g>
    <g transform="translate(30,10)" s:x="30" s:y="10" s:pid="out0">
      <text x="5" y="-4" style="fill:#000; stroke:none">Q</text>
    </g>
  </g>
  <g s:type="mux" transform="translate(271.3333333333333,86.5)" s:width="20" s:height="40">
    <s:alias val="$pmux"/>
    <s:alias val="$mux"/>
    <s:alias val="$_MUX_"/>
    <path d="M0,0 L20,10 L20,30 L0,40 Z"/>
    <g s:x="0" s:y="10" s:pid="A"/>
    <g s:x="0" s:y="30" s:pid="B"/>
    <g s:x="10" s:y="35" s:pid="S"/>
    <g s:x="20" s:y="20" s:pid="Y"/>
  </g>
  <g s:type="mux" transform="translate(333,96.5)" s:width="20" s:height="40">
    <s:alias val="$pmux"/>
    <s:alias val="$mux"/>
    <s:alias val="$_MUX_"/>
    <path d="M0,0 L20,10 L20,30 L0,40 Z"/>
    <g s:x="0" s:y="10" s:pid="A"/>
    <g s:x="0" s:y="30" s:pid="B"/>
    <g s:x="10" s:y="35" s:pid="S"/>
    <g s:x="20" s:y="20" s:pid="Y"/>
  </g>
  <g s:type="constant" transform="translate(117,114)" s:width="30" s:height="20">
    <text x="15" y="-4" class="nodelabel" s:attribute="ref">1</text>
    <s:alias val="$_constant_"/>
    <rect width="30" height="20"/>
    <g s:x="30" s:y="10" s:pid="Y"/>
  </g>
  <g s:type="constant" transform="translate(117,260.5)" s:width="30" s:height="20">
    <text x="15" y="-4" class="nodelabel" s:attribute="ref">0xd</text>
    <s:alias val="$_constant_"/>
    <rect width="30" height="20"/>
    <g s:x="30" s:y="10" s:pid="Y"/>
  </g>
  <g s:type="constant" transform="translate(268,188)" s:width="30" s:height="20">
    <text x="15" y="-4" class="nodelabel" s:attribute="ref">0x0</text>
    <s:alias val="$_constant_"/>
    <rect width="30" height="20"/>
    <g s:x="30" s:y="10" s:pid="Y"/>
  </g>
  <line x1="148" y1="26.5" x2="333" y2="26.5"/>
  <line x1="148" y1="26.5" x2="172" y2="26.5"/>
  <line x1="172" y1="26.5" x2="172" y2="109"/>
  <circle cx="172" cy="26.5" r="2" style="fill:#000"/>
  <circle cx="172" cy="109" r="2" style="fill:#000"/>
  <line x1="172" y1="109" x2="203.66666666666666" y2="109"/>
  <line x1="148" y1="26.5" x2="172" y2="26.5"/>
  <line x1="172" y1="26.5" x2="172" y2="255.5"/>
  <line x1="172" y1="255.5" x2="203.66666666666666" y2="255.5"/>
  <line x1="148" y1="26.5" x2="243" y2="26.5"/>
  <line x1="243" y1="26.5" x2="243" y2="96.5"/>
  <circle cx="243" cy="26.5" r="2" style="fill:#000"/>
  <line x1="243" y1="96.5" x2="271.3333333333333" y2="96.5"/>
  <line x1="147" y1="124" x2="203.66666666666666" y2="124"/>
  <line x1="147" y1="270.5" x2="203.66666666666666" y2="270.5"/>
  <line x1="225" y1="178" x2="243" y2="178"/>
  <line x1="243" y1="178" x2="243" y2="248"/>
  <circle cx="243" cy="178" r="2" style="fill:#000"/>
  <line x1="243" y1="248" x2="268" y2="248"/>
  <line x1="225" y1="178" x2="281.3333333333333" y2="178"/>
  <line x1="281.3333333333333" y1="178" x2="281.3333333333333" y2="121.5"/>
  <line x1="225.66666666666666" y1="263" x2="268" y2="263"/>
  <line x1="40" y1="26.5" x2="117" y2="26.5"/>
  <line x1="40" y1="85.5" x2="67" y2="85.5"/>
  <line x1="67" y1="85.5" x2="67" y2="46.5"/>
  <line x1="67" y1="46.5" x2="117" y2="46.5"/>
  <line x1="353" y1="116.5" x2="388" y2="116.5"/>
  <line x1="388" y1="116.5" x2="388" y2="290.5"/>
  <line x1="388" y1="290.5" x2="77" y2="290.5"/>
  <line x1="77" y1="290.5" x2="77" y2="66.5"/>
  <line x1="77" y1="66.5" x2="117" y2="66.5"/>
  <line x1="225.66666666666666" y1="116.5" x2="271.3333333333333" y2="116.5"/>
  <line x1="291.3333333333333" y1="106.5" x2="333" y2="106.5"/>
  <line x1="298" y1="198" x2="308" y2="198"/>
  <line x1="308" y1="198" x2="308" y2="126.5"/>
  <line x1="308" y1="126.5" x2="333" y2="126.5"/>
  <line x1="298" y1="255.5" x2="343" y2="255.5"/>
  <line x1="343" y1="255.5" x2="343" y2="131.5"/>
</svg>
