<svg xmlns="http://www.w3.org/2000/svg" xmlns:xlink="http://www.w3.org/1999/xlink" xmlns:s="https://github.com/nturley/netlistsvg" width="714" height="503">
  <style>svg {
    stroke:#000;
    fill:none;
  }
  text {
    fill:#000;
    stroke:none;
    font-size:10px;
    font-weight: bold;
    font-family: "Courier New", monospace;
  }
  .nodelabel {
    text-anchor: middle;
  }
  .inputPortLabel {
    text-anchor: end;
  }
  .splitjoinBody {
    fill:#000;
  }</style>
  <g s:type="inputExt" transform="translate(12,78.5)" s:width="30" s:height="20">
    <text x="15" y="-4" class="nodelabel" s:attribute="ref">In_actual</text>
    <s:alias val="$_inputExt_"/>
    <path d="M0,0 L0,20 L15,20 L30,10 L15,0 Z"/>
    <g s:x="28" s:y="10" s:pid="Y"/>
  </g>
  <g s:type="inputExt" transform="translate(184,340)" s:width="30" s:height="20">
    <text x="15" y="-4" class="nodelabel" s:attribute="ref">reset</text>
    <s:alias val="$_inputExt_"/>
    <path d="M0,0 L0,20 L15,20 L30,10 L15,0 Z"/>
    <g s:x="28" s:y="10" s:pid="Y"/>
  </g>
  <g s:type="inputExt" transform="translate(264,268)" s:width="30" s:height="20">
    <text x="15" y="-4" class="nodelabel" s:attribute="ref">clk</text>
    <s:alias val="$_inputExt_"/>
    <path d="M0,0 L0,20 L15,20 L30,10 L15,0 Z"/>
    <g s:x="28" s:y="10" s:pid="Y"/>
  </g>
  <g s:type="outputExt" transform="translate(653,63)" s:width="30" s:height="20">
    <text x="15" y="-4" class="nodelabel" s:attribute="ref">out</text>
    <s:alias val="$_outputExt_"/>
    <path d="M30,0 L30,20 L15,20 L0,10 L15,0 Z"/>
    <g s:x="0" s:y="10" s:pid="A"/>
  </g>
  <g s:type="add" transform="translate(408,361)" s:width="25" s:height="25">
    <s:alias val="$add"/>
    <circle r="12.5" cx="12.5" cy="12.5"/>
    <line x1="7.5" x2="17.5" y1="12.5" y2="12.5"/>
    <line x1="12.5" x2="12.5" y1="7.5" y2="17.5"/>
    <g s:x="3" s:y="5" s:pid="A"/>
    <g s:x="3" s:y="20" s:pid="B"/>
    <g s:x="25" s:y="12.5" s:pid="Y"/>
  </g>
  <g s:type="eq" transform="translate(346.3333333333333,153)" s:width="25" s:height="25">
    <s:alias val="$eq"/>
    <circle r="12.5" cx="12.5" cy="12.5"/>
    <line x1="7.5" x2="17.5" y1="10" y2="10"/>
    <line x1="7.5" x2="17.5" y1="15" y2="15"/>
    <g s:x="3" s:y="5" s:pid="A"/>
    <g s:x="3" s:y="20" s:pid="B"/>
    <g s:x="25" s:y="12.5" s:pid="Y"/>
  </g>
  <g s:type="generic" transform="translate(111,78)" s:width="30" s:height="40">
    <text x="15" y="-4" class="nodelabel" s:attribute="ref">$ne</text>
    <rect width="30" height="40" s:generic="body"/>
    <g transform="translate(0,10)" s:x="0" s:y="10" s:pid="in0">
      <text x="-3" y="-4" class="inputPortLabel">A</text>
    </g>
    <g transform="translate(0,30)" s:x="0" s:y="10" s:pid="in0">
      <text x="-3" y="-4" class="inputPortLabel">B</text>
    </g>
    <g transform="translate(30,10)" s:x="30" s:y="10" s:pid="out0">
      <text x="5" y="-4" style="fill:#000; stroke:none">Y</text>
    </g>
  </g>
  <g s:type="dff" transform="translate(588,63)" s:width="30" s:height="40">
    <s:alias val="$dff"/>
    <s:alias val="$_DFF_"/>
    <rect width="30" height="40" x="0" y="0"/>
    <path d="M0,35 L5,30 L0,25"/>
    <g s:x="30" s:y="10" s:pid="Q"/>
    <g s:x="0" s:y="30" s:pid="CLK"/>
    <g s:x="0" s:y="10" s:pid="D"/>
  </g>
  <g s:type="dff" transform="translate(653,427)" s:width="30" s:height="40">
    <s:alias val="$dff"/>
    <s:alias val="$_DFF_"/>
    <rect width="30" height="40" x="0" y="0"/>
    <path d="M0,35 L5,30 L0,25"/>
    <g s:x="30" s:y="10" s:pid="Q"/>
    <g s:x="0" s:y="30" s:pid="CLK"/>
    <g s:x="0" s:y="10" s:pid="D"/>
  </g>
  <g s:type="dff" transform="translate(343,53)" s:width="30" s:height="40">
    <s:alias val="$dff"/>
    <s:alias val="$_DFF_"/>
    <rect width="30" height="40" x="0" y="0"/>
    <path d="M0,35 L5,30 L0,25"/>
    <g s:x="30" s:y="10" s:pid="Q"/>
    <g s:x="0" s:y="30" s:pid="CLK"/>
    <g s:x="0" s:y="10" s:pid="D"/>
  </g>
  <g s:type="mux" transform="translate(474.6666666666667,289)" s:width="20" s:height="40">
    <s:alias val="$pmux"/>
    <s:alias val="$mux"/>
    <s:alias val="$_MUX_"/>
    <path d="M0,0 L20,10 L20,30 L0,40 Z"/>
    <g s:x="0" s:y="10" s:pid="A"/>
    <g s:x="0" s:y="30" s:pid="B"/>
    <g s:x="10" s:y="35" s:pid="S"/>
    <g s:x="20" s:y="20" s:pid="Y"/>
  </g>
  <g s:type="mux" transform="translate(533,407)" s:width="20" s:height="40">
    <s:alias val="$pmux"/>
    <s:alias val="$mux"/>
    <s:alias val="$_MUX_"/>
    <path d="M0,0 L20,10 L20,30 L0,40 Z"/>
    <g s:x="0" s:y="10" s:pid="A"/>
    <g s:x="0" s:y="30" s:pid="B"/>
    <g s:x="10" s:y="35" s:pid="S"/>
    <g s:x="20" s:y="20" s:pid="Y"/>
  </g>
  <g s:type="mux" transform="translate(591.3333333333334,417)" s:width="20" s:height="40">
    <s:alias val="$pmux"/>
    <s:alias val="$mux"/>
    <s:alias val="$_MUX_"/>
    <path d="M0,0 L20,10 L20,30 L0,40 Z"/>
    <g s:x="0" s:y="10" s:pid="A"/>
    <g s:x="0" s:y="30" s:pid="B"/>
    <g s:x="10" s:y="35" s:pid="S"/>
    <g s:x="20" s:y="20" s:pid="Y"/>
  </g>
  <g s:type="mux" transform="translate(411.3333333333333,33)" s:width="20" s:height="40">
    <s:alias val="$pmux"/>
    <s:alias val="$mux"/>
    <s:alias val="$_MUX_"/>
    <path d="M0,0 L20,10 L20,30 L0,40 Z"/>
    <g s:x="0" s:y="10" s:pid="A"/>
    <g s:x="0" s:y="30" s:pid="B"/>
    <g s:x="10" s:y="35" s:pid="S"/>
    <g s:x="20" s:y="20" s:pid="Y"/>
  </g>
  <g s:type="mux" transform="translate(474.6666666666667,43)" s:width="20" s:height="40">
    <s:alias val="$pmux"/>
    <s:alias val="$mux"/>
    <s:alias val="$_MUX_"/>
    <path d="M0,0 L20,10 L20,30 L0,40 Z"/>
    <g s:x="0" s:y="10" s:pid="A"/>
    <g s:x="0" s:y="30" s:pid="B"/>
    <g s:x="10" s:y="35" s:pid="S"/>
    <g s:x="20" s:y="20" s:pid="Y"/>
  </g>
  <g s:type="mux" transform="translate(533,53)" s:width="20" s:height="40">
    <s:alias val="$pmux"/>
    <s:alias val="$mux"/>
    <s:alias val="$_MUX_"/>
    <path d="M0,0 L20,10 L20,30 L0,40 Z"/>
    <g s:x="0" s:y="10" s:pid="A"/>
    <g s:x="0" s:y="30" s:pid="B"/>
    <g s:x="10" s:y="35" s:pid="S"/>
    <g s:x="20" s:y="20" s:pid="Y"/>
  </g>
  <g s:type="mux" transform="translate(195.66666666666666,33)" s:width="20" s:height="40">
    <s:alias val="$pmux"/>
    <s:alias val="$mux"/>
    <s:alias val="$_MUX_"/>
    <path d="M0,0 L20,10 L20,30 L0,40 Z"/>
    <g s:x="0" s:y="10" s:pid="A"/>
    <g s:x="0" s:y="30" s:pid="B"/>
    <g s:x="10" s:y="35" s:pid="S"/>
    <g s:x="20" s:y="20" s:pid="Y"/>
  </g>
  <g s:type="mux" transform="translate(270.3333333333333,43)" s:width="20" s:height="40">
    <s:alias val="$pmux"/>
    <s:alias val="$mux"/>
    <s:alias val="$_MUX_"/>
    <path d="M0,0 L20,10 L20,30 L0,40 Z"/>
    <g s:x="0" s:y="10" s:pid="A"/>
    <g s:x="0" s:y="30" s:pid="B"/>
    <g s:x="10" s:y="35" s:pid="S"/>
    <g s:x="20" s:y="20" s:pid="Y"/>
  </g>
  <g s:type="constant" transform="translate(343,371)" s:width="30" s:height="20">
    <text x="15" y="-4" class="nodelabel" s:attribute="ref">1</text>
    <s:alias val="$_constant_"/>
    <rect width="30" height="20"/>
    <g s:x="30" s:y="10" s:pid="Y"/>
  </g>
  <g s:type="constant" transform="translate(264,209)" s:width="30" s:height="20">
    <text x="15" y="-4" class="nodelabel" s:attribute="ref">0xea60</text>
    <s:alias val="$_constant_"/>
    <rect width="30" height="20"/>
    <g s:x="30" s:y="10" s:pid="Y"/>
  </g>
  <g s:type="constant" transform="translate(468,427)" s:width="30" s:height="20">
    <text x="15" y="-4" class="nodelabel" s:attribute="ref">0x0</text>
    <s:alias val="$_constant_"/>
    <rect width="30" height="20"/>
    <g s:x="30" s:y="10" s:pid="Y"/>
  </g>
  <line x1="618" y1="73" x2="653" y2="73"/>
  <line x1="618" y1="73" x2="628" y2="73"/>
  <line x1="628" y1="73" x2="628" y2="23"/>
  <line x1="628" y1="23" x2="508" y2="23"/>
  <line x1="508" y1="23" x2="508" y2="175.5"/>
  <line x1="508" y1="175.5" x2="393" y2="175.5"/>
  <line x1="393" y1="175.5" x2="393" y2="43"/>
  <circle cx="508" cy="23" r="2" style="fill:#000"/>
  <line x1="393" y1="43" x2="411.3333333333333" y2="43"/>
  <line x1="618" y1="73" x2="628" y2="73"/>
  <line x1="628" y1="73" x2="628" y2="23"/>
  <line x1="628" y1="23" x2="453" y2="23"/>
  <line x1="453" y1="23" x2="453" y2="73"/>
  <circle cx="628" cy="73" r="2" style="fill:#000"/>
  <line x1="453" y1="73" x2="474.6666666666667" y2="73"/>
  <line x1="683" y1="437" x2="702" y2="437"/>
  <line x1="702" y1="437" x2="702" y2="396"/>
  <line x1="702" y1="396" x2="393" y2="396"/>
  <line x1="393" y1="396" x2="393" y2="366"/>
  <line x1="393" y1="366" x2="411" y2="366"/>
  <line x1="683" y1="437" x2="702" y2="437"/>
  <line x1="702" y1="437" x2="702" y2="12"/>
  <line x1="702" y1="12" x2="313" y2="12"/>
  <line x1="313" y1="12" x2="313" y2="158"/>
  <line x1="313" y1="158" x2="349.3333333333333" y2="158"/>
  <line x1="683" y1="437" x2="702" y2="437"/>
  <line x1="702" y1="437" x2="702" y2="396"/>
  <line x1="702" y1="396" x2="453" y2="396"/>
  <line x1="453" y1="396" x2="453" y2="319"/>
  <circle cx="453" cy="396" r="2" style="fill:#000"/>
  <circle cx="702" cy="396" r="2" style="fill:#000"/>
  <line x1="453" y1="319" x2="474.6666666666667" y2="319"/>
  <line x1="373" y1="381" x2="411" y2="381"/>
  <line x1="294" y1="219" x2="333" y2="219"/>
  <line x1="333" y1="219" x2="333" y2="173"/>
  <line x1="333" y1="173" x2="349.3333333333333" y2="173"/>
  <line x1="40" y1="88.5" x2="111" y2="88.5"/>
  <line x1="40" y1="88.5" x2="89" y2="88.5"/>
  <line x1="89" y1="88.5" x2="89" y2="131"/>
  <line x1="89" y1="131" x2="169" y2="131"/>
  <line x1="169" y1="131" x2="169" y2="188"/>
  <line x1="169" y1="188" x2="518" y2="188"/>
  <line x1="518" y1="188" x2="518" y2="83"/>
  <circle cx="89" cy="88.5" r="2" style="fill:#000"/>
  <circle cx="169" cy="131" r="2" style="fill:#000"/>
  <line x1="518" y1="83" x2="533" y2="83"/>
  <line x1="40" y1="88.5" x2="89" y2="88.5"/>
  <line x1="89" y1="88.5" x2="89" y2="63"/>
  <line x1="89" y1="63" x2="195.66666666666666" y2="63"/>
  <line x1="40" y1="88.5" x2="89" y2="88.5"/>
  <line x1="89" y1="88.5" x2="89" y2="131"/>
  <line x1="89" y1="131" x2="249" y2="131"/>
  <line x1="249" y1="131" x2="249" y2="73"/>
  <line x1="249" y1="73" x2="270.3333333333333" y2="73"/>
  <line x1="373" y1="63" x2="383" y2="63"/>
  <line x1="383" y1="63" x2="383" y2="22"/>
  <line x1="383" y1="22" x2="79" y2="22"/>
  <line x1="79" y1="22" x2="79" y2="108.5"/>
  <circle cx="383" cy="63" r="2" style="fill:#000"/>
  <line x1="79" y1="108.5" x2="111" y2="108.5"/>
  <line x1="373" y1="63" x2="411.3333333333333" y2="63"/>
  <line x1="373" y1="63" x2="383" y2="63"/>
  <line x1="383" y1="63" x2="383" y2="22"/>
  <line x1="383" y1="22" x2="239" y2="22"/>
  <line x1="239" y1="22" x2="239" y2="93"/>
  <line x1="239" y1="93" x2="169" y2="93"/>
  <line x1="169" y1="93" x2="169" y2="43"/>
  <circle cx="239" cy="22" r="2" style="fill:#000"/>
  <line x1="169" y1="43" x2="195.66666666666666" y2="43"/>
  <line x1="292" y1="278" x2="563" y2="278"/>
  <line x1="563" y1="278" x2="563" y2="93"/>
  <line x1="563" y1="93" x2="588" y2="93"/>
  <line x1="292" y1="278" x2="323" y2="278"/>
  <line x1="323" y1="278" x2="323" y2="468"/>
  <line x1="323" y1="468" x2="628" y2="468"/>
  <line x1="628" y1="468" x2="628" y2="457"/>
  <circle cx="323" cy="278" r="2" style="fill:#000"/>
  <line x1="628" y1="457" x2="653" y2="457"/>
  <line x1="292" y1="278" x2="323" y2="278"/>
  <line x1="323" y1="278" x2="323" y2="83"/>
  <line x1="323" y1="83" x2="343" y2="83"/>
  <line x1="553" y1="73" x2="588" y2="73"/>
  <line x1="611.3333333333334" y1="437" x2="653" y2="437"/>
  <line x1="290.3333333333333" y1="63" x2="343" y2="63"/>
  <line x1="433" y1="373.5" x2="443" y2="373.5"/>
  <line x1="443" y1="373.5" x2="443" y2="299"/>
  <line x1="443" y1="299" x2="474.6666666666667" y2="299"/>
  <line x1="371.3333333333333" y1="165.5" x2="383" y2="165.5"/>
  <line x1="383" y1="165.5" x2="383" y2="339"/>
  <line x1="383" y1="339" x2="484.6666666666667" y2="339"/>
  <circle cx="383" cy="165.5" r="2" style="fill:#000"/>
  <line x1="484.6666666666667" y1="339" x2="484.6666666666667" y2="324"/>
  <line x1="371.3333333333333" y1="165.5" x2="421.3333333333333" y2="165.5"/>
  <line x1="421.3333333333333" y1="165.5" x2="421.3333333333333" y2="68"/>
  <line x1="494.6666666666667" y1="309" x2="508" y2="309"/>
  <line x1="508" y1="309" x2="508" y2="417"/>
  <line x1="508" y1="417" x2="533" y2="417"/>
  <line x1="498" y1="437" x2="533" y2="437"/>
  <line x1="498" y1="437" x2="508" y2="437"/>
  <line x1="508" y1="437" x2="508" y2="457"/>
  <line x1="508" y1="457" x2="563" y2="457"/>
  <line x1="563" y1="457" x2="563" y2="447"/>
  <circle cx="508" cy="437" r="2" style="fill:#000"/>
  <line x1="563" y1="447" x2="591.3333333333334" y2="447"/>
  <line x1="142" y1="88.5" x2="159" y2="88.5"/>
  <line x1="159" y1="88.5" x2="159" y2="490"/>
  <line x1="159" y1="490" x2="543" y2="490"/>
  <circle cx="159" cy="88.5" r="2" style="fill:#000"/>
  <line x1="543" y1="490" x2="543" y2="442"/>
  <line x1="142" y1="88.5" x2="159" y2="88.5"/>
  <line x1="159" y1="88.5" x2="159" y2="142"/>
  <line x1="159" y1="142" x2="484.6666666666667" y2="142"/>
  <circle cx="159" cy="142" r="2" style="fill:#000"/>
  <line x1="484.6666666666667" y1="142" x2="484.6666666666667" y2="78"/>
  <line x1="142" y1="88.5" x2="159" y2="88.5"/>
  <line x1="159" y1="88.5" x2="159" y2="83"/>
  <line x1="159" y1="83" x2="205.66666666666666" y2="83"/>
  <line x1="205.66666666666666" y1="83" x2="205.66666666666666" y2="68"/>
  <line x1="553" y1="427" x2="591.3333333333334" y2="427"/>
  <line x1="212" y1="350" x2="313" y2="350"/>
  <line x1="313" y1="350" x2="313" y2="479"/>
  <line x1="313" y1="479" x2="601.3333333333334" y2="479"/>
  <circle cx="313" cy="350" r="2" style="fill:#000"/>
  <line x1="601.3333333333334" y1="479" x2="601.3333333333334" y2="452"/>
  <line x1="212" y1="350" x2="543" y2="350"/>
  <line x1="543" y1="350" x2="543" y2="88"/>
  <line x1="212" y1="350" x2="239" y2="350"/>
  <line x1="239" y1="350" x2="239" y2="199"/>
  <line x1="239" y1="199" x2="280.3333333333333" y2="199"/>
  <circle cx="239" cy="350" r="2" style="fill:#000"/>
  <line x1="280.3333333333333" y1="199" x2="280.3333333333333" y2="78"/>
  <line x1="431.3333333333333" y1="53" x2="474.6666666666667" y2="53"/>
  <line x1="494.6666666666667" y1="63" x2="533" y2="63"/>
  <line x1="215.66666666666666" y1="53" x2="270.3333333333333" y2="53"/>
</svg>
