<?xml version="1.0" encoding="UTF-8" standalone="no"?>
<svg
   xmlns:dc="http://purl.org/dc/elements/1.1/"
   xmlns:cc="http://creativecommons.org/ns#"
   xmlns:rdf="http://www.w3.org/1999/02/22-rdf-syntax-ns#"
   xmlns:svg="http://www.w3.org/2000/svg"
   xmlns="http://www.w3.org/2000/svg"
   xmlns:sodipodi="http://sodipodi.sourceforge.net/DTD/sodipodi-0.dtd"
   xmlns:inkscape="http://www.inkscape.org/namespaces/inkscape"
   viewBox="-252 400.9 90 40"
   id="svg2"
   version="1.1"
   inkscape:version="0.91 r13725"
   sodipodi:docname="DebouncerQ.svg">
  <metadata
     id="metadata12">
    <rdf:RDF>
      <cc:Work
         rdf:about="">
        <dc:format>image/svg+xml</dc:format>
        <dc:type
           rdf:resource="http://purl.org/dc/dcmitype/StillImage" />
        <dc:title />
      </cc:Work>
    </rdf:RDF>
  </metadata>
  <defs
     id="defs10" />
  <sodipodi:namedview
     pagecolor="#ffffff"
     bordercolor="#666666"
     borderopacity="1"
     objecttolerance="10"
     gridtolerance="10"
     guidetolerance="10"
     inkscape:pageopacity="0"
     inkscape:pageshadow="2"
     inkscape:window-width="1366"
     inkscape:window-height="746"
     id="namedview8"
     showgrid="false"
     inkscape:zoom="2.2722222"
     inkscape:cx="84.457229"
     inkscape:cy="37.937573"
     inkscape:window-x="-8"
     inkscape:window-y="-8"
     inkscape:window-maximized="1"
     inkscape:current-layer="svg2" />
  <path
     d="m -252.56456,438.59524 17.69339,0 0,-25.45865 4.54866,0 0,25.45865 4.08077,0 0,-25.45865 2.67472,0 0,25.45865 2.31546,0 0,-25.45865 2.72051,0 0,25.60123 4.97078,0 0,-26.06171 30.15993,0"
     id="path4"
     inkscape:connector-curvature="0"
     style="fill:none;stroke:#000000;stroke-width:1.1294421;stroke-linecap:round;stroke-linejoin:round" />
  <path
     d="m -235.26711,413.06165 16.93678,23.26377 m 0,-23.26377 -16.93678,23.26377"
     id="path6"
     inkscape:connector-curvature="0"
     style="fill:none;stroke:#ff0000;stroke-width:2.01566005;stroke-linecap:round" />
  <path
     inkscape:connector-curvature="0"
     style="fill:none;stroke:#000000;stroke-width:1.02124059;stroke-linecap:round;stroke-linejoin:round"
     d="m -231.84503,407.32974 14.90696,0 0,-24.70503 3.83232,0 0,24.70503 3.43811,0 0,-24.70503 2.2535,0 0,24.70503 1.95081,0 0,-24.70503 2.29207,0 0,24.8434 4.18797,0 0,-25.29024 25.41022,0"
     id="path4-1" />
  <path
     inkscape:connector-curvature="0"
     style="fill:none;stroke:#ff0000;stroke-width:2.03284717;stroke-linecap:round"
     d="m -219.76497,381.74625 16.91942,23.68647 m 0,-23.68647 -16.91942,23.68647"
     id="path6-8" />
</svg>
