<?xml version="1.0" encoding="UTF-8" standalone="no"?>
<!-- Created with Inkscape (http://www.inkscape.org/) -->

<svg
   xmlns:dc="http://purl.org/dc/elements/1.1/"
   xmlns:cc="http://creativecommons.org/ns#"
   xmlns:rdf="http://www.w3.org/1999/02/22-rdf-syntax-ns#"
   xmlns:svg="http://www.w3.org/2000/svg"
   xmlns="http://www.w3.org/2000/svg"
   xmlns:sodipodi="http://sodipodi.sourceforge.net/DTD/sodipodi-0.dtd"
   xmlns:inkscape="http://www.inkscape.org/namespaces/inkscape"
   width="135.98674mm"
   height="147.98711mm"
   viewBox="0 0 481.84278 524.36376"
   id="svg3338"
   version="1.1"
   inkscape:version="0.91 r13725"
   sodipodi:docname="Detector_Flanco.svg">
  <defs
     id="defs3340" />
  <sodipodi:namedview
     id="base"
     pagecolor="#ffffff"
     bordercolor="#666666"
     borderopacity="1.0"
     inkscape:pageopacity="0.0"
     inkscape:pageshadow="2"
     inkscape:zoom="0.7"
     inkscape:cx="372.445"
     inkscape:cy="272.85748"
     inkscape:document-units="px"
     inkscape:current-layer="layer1"
     showgrid="false"
     fit-margin-top="0"
     fit-margin-left="0"
     fit-margin-right="0"
     fit-margin-bottom="0"
     inkscape:window-width="1366"
     inkscape:window-height="746"
     inkscape:window-x="-8"
     inkscape:window-y="-8"
     inkscape:window-maximized="1" />
  <metadata
     id="metadata3343">
    <rdf:RDF>
      <cc:Work
         rdf:about="">
        <dc:format>image/svg+xml</dc:format>
        <dc:type
           rdf:resource="http://purl.org/dc/dcmitype/StillImage" />
        <dc:title />
      </cc:Work>
    </rdf:RDF>
  </metadata>
  <g
     inkscape:label="Capa 1"
     inkscape:groupmode="layer"
     id="layer1"
     transform="translate(-102.02541,-10.800364)">
    <path
       style="fill:#000000;fill-opacity:1;fill-rule:nonzero;stroke:none;stroke-width:1px;stroke-linecap:butt;stroke-linejoin:miter;stroke-opacity:1"
       id="path3364"
       d="m 145.41409,269.31539 c 5.04893,0.1221 10.10015,0.10951 15.15021,0.11706 5.18669,-0.0142 10.37345,-0.015 15.56006,-0.052 3.18947,0.16857 6.30471,-0.1039 9.44601,-0.6146 2.00274,-0.66758 3.86689,-1.68716 5.73709,-2.66396 1.79249,-0.48696 3.41831,-1.28882 5.07006,-2.12157 0.28169,0.0302 0.58873,-0.0341 0.84506,0.0906 2.29728,1.11692 2.02645,5.39432 2.04864,7.44755 -0.14933,6.07558 -0.81,12.12016 -1.69322,18.12334 -1.35724,6.81113 -2.25541,13.69362 -2.77824,20.62323 -0.35103,5.18484 -0.3789,10.38329 -0.38026,15.57817 0.007,3.73133 0.0609,7.46226 0.0888,11.19346 0.0222,2.45334 0.0359,4.90674 0.0428,7.36017 -0.061,2.22049 -0.63372,4.35559 -1.19767,6.48116 -0.67557,2.72665 -0.73883,5.55881 -0.81074,8.35722 0.0969,2.16973 -0.47203,4.49639 0.51016,6.49507 3.99716,2.79109 8.66843,4.32101 13.27135,5.63833 8.14771,1.93159 16.52631,2.33325 24.85133,2.59343 5.05093,0.11982 10.1034,0.0678 15.15448,-0.006 1.4841,-0.0434 2.69901,-0.5874 3.99346,-1.24238 0,0 -11.77594,9.61052 -11.77594,9.61052 l 0,0 c -1.3643,0.48761 -2.77416,0.68392 -4.22143,0.66788 -4.95777,-0.0298 -9.9158,-0.0917 -14.87062,-0.28273 -8.39361,-0.37172 -16.83262,-0.91886 -25.04271,-2.88206 -3.92014,-1.12878 -9.97377,-2.87075 -13.32451,-5.39465 -0.384,-0.28924 -0.68808,-0.67775 -1.03211,-1.01663 -1.29487,-2.5566 -0.8035,-4.4317 -0.80435,-7.21808 0.0794,-2.88669 0.12838,-5.79558 0.60268,-8.64733 0.49692,-2.03745 1.16727,-4.01819 1.37104,-6.12456 0.005,-2.46478 0.0162,-4.92952 0.028,-7.39427 0.0119,-3.7589 0.038,-7.51766 0.0519,-11.27657 0.0289,-5.24555 0.0308,-10.49903 0.41683,-15.73243 0.58679,-6.96579 1.48293,-13.90002 2.81068,-20.759 0.89188,-5.88882 1.48956,-11.82723 1.57774,-17.79222 -0.001,-0.73135 0.0668,-4.63153 -0.6554,-5.18137 -0.23362,-0.17788 -0.65284,0.72624 -0.79455,0.36689 -1.64337,0.81863 -3.4255,1.26853 -5.04747,2.13654 -1.8914,0.99054 -3.89518,1.87925 -5.99529,2.23448 -3.13472,0.42305 -6.27588,0.398 -9.43348,0.33245 -5.14056,-0.0373 -10.28127,-0.0377 -15.42193,-0.052 -5.15385,0.007 -10.30873,-0.003 -15.46153,0.11707 0,0 12.11308,-9.10996 12.11308,-9.10996 z"
       inkscape:connector-curvature="0" />
    <path
       style="fill:#000000;fill-opacity:1;fill-rule:nonzero;stroke:none;stroke-width:1px;stroke-linecap:butt;stroke-linejoin:miter;stroke-opacity:1"
       id="path3366"
       d="m 177.71195,311.22156 c 2.06996,2.69516 4.13203,5.40912 5.91279,8.32033 1.63197,2.38023 2.71438,5.11523 4.33979,7.49177 1.16031,1.68593 2.1476,3.49193 3.68864,4.84033 1.49244,0.53447 2.37343,3.32426 3.53116,3.88121 1.4528,-4.95852 13.01652,-7.69644 -12.21294,6.64565 -0.18184,0.10341 0.28863,-0.31421 0.39198,-0.50041 0.28957,-0.52171 0.58441,-1.45784 0.77387,-2.0044 0.89633,-2.79493 2.18975,-5.43256 3.53107,-8.02199 1.30882,-2.18803 2.59146,-4.41373 4.09919,-6.46336 4.6171,-5.27655 11.33714,-8.16149 17.74428,-10.49506 -0.66008,0.94415 3.60777,-1.74197 2.48967,-1.08292 -21.43375,12.63385 -14.23838,9.45945 -10.49714,5.76605 0.65731,-0.20143 1.91484,-4.25164 1.34132,-2.48722 -4.67876,2.20476 -10.87913,6.1571 10.55553,-6.32 0.56679,-0.32993 -1.07897,0.75271 -1.59818,1.15796 -1.67646,1.21308 -2.9345,2.90334 -4.30317,4.45254 -1.48548,1.93466 -2.73368,4.04792 -4.10295,6.06961 -0.16998,0.27966 -0.33996,0.55933 -0.50994,0.839 0,0 -13.6655,6.3176 -13.6655,6.3176 l 0,0 c 0.15662,-0.32177 0.31325,-0.64355 0.46987,-0.96533 1.33294,-2.08723 2.7986,-4.08182 4.05676,-6.2261 1.27581,-1.68426 2.71136,-3.24474 4.13739,-4.78911 5.3435,-3.81018 10.6747,-9.95501 17.33475,-9.4434 2.14921,1.71872 1.07287,3.20945 0.0661,5.36754 -4.06815,5.78259 -11.15422,8.58527 -17.5854,10.90418 -0.54077,0.21619 -1.09596,0.39243 -1.63615,0.61015 -0.28795,0.11606 -1.11321,0.55203 -0.84771,0.38837 21.3929,-13.18616 14.46035,-9.18089 10.30873,-6.12284 -1.65257,1.90897 -2.83626,4.1481 -4.28821,6.21965 -1.31653,2.51284 -2.64871,5.03452 -3.58293,7.73214 -0.04,0.14629 -0.8295,2.99034 -0.8376,2.99585 -0.57993,0.39462 -9.75019,11.20857 -14.37068,7.75839 -1.24178,-1.28739 -1.92367,-3.06619 -3.51887,-4.0188 -1.53799,-1.51816 -2.66375,-3.34874 -3.835,-5.17341 -1.57239,-2.43856 -2.68383,-5.16267 -4.29291,-7.58291 -1.7331,-2.80942 -3.6436,-5.5407 -5.8716,-7.95168 0,0 12.78402,-8.10938 12.78402,-8.10938 z"
       inkscape:connector-curvature="0" />
    <path
       style="fill:#000000;fill-opacity:1;fill-rule:nonzero;stroke:none;stroke-width:1px;stroke-linecap:butt;stroke-linejoin:miter;stroke-opacity:1"
       id="path3385"
       d="m 266.43352,297.32746 c 0.72977,5.86984 1.36778,11.74947 2.41251,17.57061 1.02557,6.02817 1.90199,12.07832 3.0078,18.09232 0.38922,2.01112 0.70636,4.03495 1.00133,6.06263 0,0 -13.12859,7.15299 -13.12859,7.15299 l 0,0 c -0.22794,-2.03202 -0.47761,-4.06129 -0.82621,-6.07584 -1.01913,-6.03946 -1.8883,-12.10265 -2.9081,-18.14156 -1.03273,-5.74467 -1.64491,-11.55751 -2.72404,-17.29141 0,0 13.1653,-7.36974 13.1653,-7.36974 z"
       inkscape:connector-curvature="0" />
    <path
       style="fill:#000000;fill-opacity:1;fill-rule:nonzero;stroke:none;stroke-width:1px;stroke-linecap:butt;stroke-linejoin:miter;stroke-opacity:1"
       id="path3387"
       d="m 233.15126,309.65799 c 8.19339,-5.62929 16.57883,-9.99493 25.71876,-13.41324 9.9491,-3.33314 19.6982,-7.24843 29.40545,-11.26325 8.63497,-3.66234 17.16598,-7.58851 25.47104,-11.99267 0,0 -11.42806,9.46806 -11.42806,9.46806 l 0,0 c -8.17738,4.18459 -16.58582,7.8677 -25.01995,11.45795 -9.88471,4.0732 -19.80106,8.05772 -29.87614,11.60284 -2.64377,1.05101 -3.33805,1.28609 -5.85573,2.43701 -5.33995,2.44105 -17.11008,9.33897 5.5444,-3.95073 0,0 -13.95977,5.65403 -13.95977,5.65403 z"
       inkscape:connector-curvature="0" />
    <path
       style="fill:#000000;fill-opacity:1;fill-rule:nonzero;stroke:none;stroke-width:1px;stroke-linecap:butt;stroke-linejoin:miter;stroke-opacity:1"
       id="path3389"
       d="m 263.78095,318.28798 c 4.86209,-0.49127 9.5543,-1.79928 14.26131,-3.07605 4.17404,-0.67591 8.1644,-2.09562 12.26514,-3.07811 2.19458,-0.44057 1.11605,-0.24651 3.23472,-0.5874 0,0 -11.87876,9.24942 -11.87876,9.24942 l 0,0 c -2.04812,0.38177 -1.00437,0.16732 -3.13022,0.64874 -4.03089,1.08082 -8.05302,2.15092 -12.1369,3.00511 -4.81422,1.29454 -9.65565,2.43473 -14.60307,3.04436 0,0 11.98778,-9.20607 11.98778,-9.20607 z"
       inkscape:connector-curvature="0" />
    <path
       style="fill:#ff0000;fill-opacity:1;fill-rule:nonzero;stroke:none;stroke-width:1px;stroke-linecap:butt;stroke-linejoin:miter;stroke-opacity:1"
       id="path3391"
       d="m 326.18092,313.78217 c 4.1761,0.59834 8.40371,0.6882 12.61435,0.80543 4.97208,0.32345 9.93347,0.67634 14.88042,1.26553 4.50078,0.53456 9.03188,0.68913 13.5594,0.7783 3.06913,0.0437 6.1386,0.0195 9.20782,0.002 2.08566,-0.0129 4.17135,-0.0166 6.25704,-0.0186 2.00812,-10e-4 4.01623,-10e-4 6.02435,-9.2e-4 1.01803,0.0547 1.97698,0.008 2.97258,-0.19209 0,0 -11.99993,8.93881 -11.99993,8.93881 l 0,0 c -1.02678,0.0478 -2.05152,0.0666 -3.07961,0.0496 -2.00806,2.8e-4 -4.01612,7.2e-4 -6.02418,0.002 -2.07685,0.002 -4.15371,0.005 -6.23056,-0.001 -3.02904,-0.014 -6.05804,-0.0497 -9.08597,-0.13688 -4.54999,-0.13771 -9.10046,-0.34988 -13.62225,-0.90161 -4.89483,-0.57538 -9.81124,-0.95008 -14.73303,-1.2046 -4.33777,-0.10223 -8.68072,-0.24538 -12.99422,-0.74591 0,0 12.25379,-8.63993 12.25379,-8.63993 z"
       inkscape:connector-curvature="0" />
    <path
       style="fill:#ff0000;fill-opacity:1;fill-rule:nonzero;stroke:none;stroke-width:1px;stroke-linecap:butt;stroke-linejoin:miter;stroke-opacity:1"
       id="path3393"
       d="m 370.73402,301.05785 c 4.14293,2.20021 8.49284,3.90832 12.80709,5.73066 4.86215,2.01729 9.7842,3.94745 14.77862,5.62084 2.31081,0.95956 4.77914,1.43679 5.52853,4.10135 -0.0443,0.33596 -0.0169,0.68948 -0.13288,1.00788 -0.52929,1.4529 -3.3538,2.94981 -4.58601,3.706 -2.74777,1.98855 -5.58488,3.84268 -8.38692,5.75221 -5.433,3.63019 -11.29598,6.57466 -16.87618,9.954 -3.81256,2.30888 7.72168,-4.45458 11.5975,-6.65562 0.63374,-0.3599 -1.22698,0.78688 -1.83646,1.18649 -4.95901,3.65514 -0.51002,0.41732 -14.30415,8.45526 -0.52979,0.30871 -2.17418,1.13315 -1.64449,0.82428 4.01182,-2.33936 16.01633,-9.40354 12.09168,-6.92073 -4.41291,2.79169 -9.03848,5.23212 -13.55773,7.84818 -10.63329,5.52156 42.8021,-24.47339 -2.16597,1.13857 -4.04598,2.30442 16.15987,-9.25952 12.10573,-6.9695 -10.35299,5.84797 -9.34486,5.24806 -14.42778,8.31209 -0.30099,0.14084 -0.60198,0.28168 -0.90298,0.42252 0,0 11.67923,-9.36135 11.67923,-9.36135 l 0,0 c 0.28732,-0.16068 0.57464,-0.32135 0.86196,-0.48202 0.28446,-0.15593 1.13378,-0.63088 0.85337,-0.46779 -4.0126,2.33385 -16.07043,9.30085 -12.05019,6.98019 44.4475,-25.657 -30.35534,17.44307 15.69893,-9.00767 -40.57122,23.49616 31.18343,-17.88284 -8.92212,5.27704 -0.27226,0.15722 0.52059,-0.35262 0.78089,-0.52894 4.36033,-3.61399 13.45446,-8.03831 15.70006,-9.40511 3.74482,-2.27933 -7.57092,4.42252 -11.37362,6.60391 -0.98595,0.56559 3.95173,-2.44372 2.90234,-1.79008 2.78633,-1.90857 5.64567,-3.68418 8.31639,-5.75927 3.65927,-2.53069 -1.08279,0.66169 2.38133,-1.41506 0.70666,-0.42365 1.56663,-1.3249 2.29761,-1.66177 0.17496,-0.0806 0.38253,-0.0461 0.57379,-0.0692 0.626,-1.2417 -3.84828,-2.4198 -4.44931,-2.80069 -4.92017,-1.84628 -9.81824,-3.7677 -14.66976,-5.78467 -4.40703,-1.78599 -8.78084,-3.62669 -13.13506,-5.53408 0,0 12.46656,-8.30793 12.46656,-8.30793 z"
       inkscape:connector-curvature="0" />
    <path
       style="fill:#ff0000;fill-opacity:1;fill-rule:nonzero;stroke:none;stroke-width:1px;stroke-linecap:butt;stroke-linejoin:miter;stroke-opacity:1"
       id="path3395"
       d="m 321.18063,444.9008 c 7.20526,0.41801 14.37978,-0.47364 21.53282,-1.20624 7.67029,-0.91052 15.33759,-1.84815 23.03514,-2.49889 3.06681,-0.27602 6.14353,-0.34013 9.22044,-0.34594 1.15966,-5.4e-4 2.31932,0.002 3.47898,0.005 0,0 -12.09399,8.7804 -12.09399,8.7804 l 0,0 c -1.151,-0.006 -2.30201,-0.0123 -3.45303,-0.01 -2.98937,0.0172 -5.97895,0.0894 -8.96225,0.29106 -7.5833,0.5271 -15.13734,1.37176 -22.683,2.28487 -7.37806,0.76852 -14.75871,1.54929 -22.18818,1.50085 0,0 12.11307,-8.80067 12.11307,-8.80067 z"
       inkscape:connector-curvature="0" />
    <path
       style="fill:#ff0000;fill-opacity:1;fill-rule:nonzero;stroke:none;stroke-width:1px;stroke-linecap:butt;stroke-linejoin:miter;stroke-opacity:1"
       id="path3397"
       d="m 361.83217,425.26674 c 5.23185,1.9333 10.54228,3.64371 15.81078,5.47287 3.88027,1.65749 8.01309,2.71247 11.81702,4.54438 0.27933,0.26589 0.64476,0.46393 0.83798,0.79768 1.58228,2.73307 -3.06044,6.05043 -4.70794,7.533 -4.6101,3.7883 -9.05651,7.77063 -13.37099,11.89117 -3.61861,3.36027 -7.10279,6.85893 -10.66999,10.27299 -1.10404,1.10059 -2.35695,2.0261 -3.60134,2.95686 0,0 -13.84779,5.51349 -13.84779,5.51349 l 0,0 c 1.2599,-0.963 2.61954,-1.77403 3.78948,-2.85386 3.62813,-3.41702 7.15559,-6.93204 10.81218,-10.31833 4.26653,-4.16177 8.71186,-8.1469 13.30293,-11.94655 0.65996,-0.55223 1.34467,-1.07616 1.97987,-1.65668 0.92116,-0.84186 1.67598,-1.85835 2.62214,-2.672 0.32095,-0.276 1.11693,-0.45096 0.95178,-0.84072 -0.0914,-0.21578 -0.35337,-0.30792 -0.53006,-0.46188 -3.72346,-1.74462 -7.6497,-3.02856 -11.4477,-4.59659 -5.33657,-1.84891 -10.70463,-3.61282 -16.11063,-5.24815 0,0 12.36228,-8.38768 12.36228,-8.38768 z"
       inkscape:connector-curvature="0" />
    <path
       style="fill:#000000;fill-opacity:1;fill-rule:nonzero;stroke:none;stroke-width:1px;stroke-linecap:butt;stroke-linejoin:miter;stroke-opacity:1"
       id="path3399"
       d="m 413.10451,359.03784 c 5.25039,0.19582 10.49758,-0.26289 15.73957,-0.52427 4.2553,-0.22235 8.51426,-0.37226 12.77454,-0.45287 2.23297,-0.15965 4.51953,0.21232 6.72111,-0.22744 1.98019,-0.44994 4.00029,-0.63482 6.02347,-0.74202 0.85834,-0.17231 1.56198,-0.45927 2.30273,-0.89309 0.21893,-0.12821 0.89502,-0.47802 0.67507,-0.35157 -12.68282,7.29145 -16.01834,9.82255 -11.68189,6.57963 0.17747,-0.39642 0.41542,-0.77098 0.5324,-1.18927 0.30743,-1.09935 0.49222,-3.26812 0.57085,-4.32728 0.21768,-2.93218 0.25297,-5.87541 0.3052,-8.81366 0.11599,-8.12507 0.1419,-16.25092 0.12004,-24.37668 -0.0389,-6.0832 -0.11927,-12.16602 -0.20236,-18.24873 -0.0702,-3.23568 -0.0511,-6.47196 -0.0375,-9.70805 0.0326,-3.65514 0.0193,-7.31031 -8.8e-4,-10.96548 0.0937,-2.78795 -0.0511,-5.5377 -0.44711,-8.29501 -0.0649,-1.68968 -0.90068,-3.70162 -0.18672,-5.35549 0.13908,-0.32217 0.39152,-0.58246 0.58728,-0.87369 4.67004,-2.58965 9.25408,-5.34086 14.01012,-7.76896 0.2439,-0.12452 3.32131,-0.27805 3.3993,-0.28147 2.26596,-0.0992 4.50665,-0.26317 6.76762,-0.45528 4.14305,-0.31822 8.24617,-1.00323 12.38059,-1.42222 2.43268,-0.2415 4.87716,-0.29238 7.3198,-0.3103 2.64531,-0.26371 3.65689,1.53603 3.96345,3.87569 0.0954,2.54733 -0.0431,5.09831 -0.1162,7.64532 0.0912,2.55557 -0.25686,5.07103 -0.62025,7.59042 -0.32657,2.01361 -0.30802,4.05751 -0.50648,6.08203 -0.31386,2.32636 -0.73331,4.62524 -1.23677,6.91697 -0.47464,2.10658 -0.62018,4.26159 -0.70003,6.41311 -0.0731,2.60502 -0.0594,5.2119 -0.0562,7.81775 -0.005,2.69681 0.004,5.39361 0.007,8.09042 0.008,2.32004 0.0178,4.64008 0.023,6.96013 -0.0196,2.31694 -0.009,4.63402 -0.003,6.95101 -0.0187,2.56 -0.0219,5.11999 -0.0131,7.68005 -0.0195,3.69836 -0.0772,7.39668 -0.0902,11.09531 -0.0135,4.18689 0.0124,8.37357 0.057,12.56018 0.31776,1.07129 -0.39895,3.16613 0.13701,4.15713 0.0843,0.15594 0.26668,-0.2341 0.40771,-0.34152 3.20382,-0.99059 6.67357,-0.91201 9.99426,-1.26811 5.14957,-0.4702 10.20007,-1.62386 15.29703,-2.45882 2.89677,-0.49007 5.82481,-0.70234 8.7584,-0.76985 2.29628,0.11433 4.51146,-0.10113 6.72896,-0.69913 2.8178,-0.9917 5.70086,-1.77538 8.53082,-2.73022 0.48825,-0.14962 0.98234,-0.28139 1.46477,-0.44886 3.6901,-1.28101 -0.88313,0.17759 2.68981,-1.0087 1.23758,-0.41091 2.49355,-0.61982 3.72694,-1.04335 2.72657,-0.70463 5.54482,-1.13616 8.33585,-1.5564 1.52132,-0.13496 3.00929,-0.48942 4.5056,-0.77885 0,0 -11.86698,8.96422 -11.86698,8.96422 l 0,0 c -1.50109,0.27536 -3.00351,0.5449 -4.51837,0.7355 -2.77717,0.46586 -5.57853,0.90817 -8.26766,1.76085 -2.64752,0.7016 -5.20891,1.63726 -7.81086,2.48796 -2.87407,0.91612 -5.75163,1.82949 -8.65469,2.64793 -2.29637,0.42633 -4.59598,0.51934 -6.92966,0.48919 -2.8394,0.10135 -5.67096,0.34564 -8.47704,0.80393 -5.09732,0.81607 -10.15436,1.91506 -15.30443,2.36291 -2.22642,0.23219 -4.46303,0.40337 -6.6785,0.72902 -0.0129,0.002 -2.59226,0.43905 -2.80845,0.45032 -0.35268,0.0184 -0.70483,-0.046 -1.05724,-0.0689 -0.27818,-0.15864 -0.59239,-0.26638 -0.83454,-0.47594 -1.36844,-1.18417 -0.34144,-3.69424 -0.59421,-5.20157 0.0443,-4.20598 0.0706,-8.41204 0.057,-12.61829 -0.013,-3.66799 -0.0708,-7.33566 -0.0902,-11.00337 0.009,-2.55562 0.006,-5.11118 -0.013,-7.66675 0.005,-2.31584 0.0164,-4.63176 -0.003,-6.94756 0.005,-2.32726 0.0149,-4.6545 0.0209,-6.98175 7.3e-4,-2.69628 0.005,-5.39261 -0.008,-8.08886 -0.003,-2.61543 -0.008,-5.23081 0.0134,-7.84623 0.0461,-2.22836 0.11216,-4.46386 0.56937,-6.65454 0.47966,-2.26433 1.04064,-4.49746 1.26513,-6.80914 0.37884,-2.00398 0.15921,-4.07696 0.51724,-6.09251 0.35371,-2.47999 0.90741,-4.9301 0.74686,-7.45395 0.0418,-2.48411 0.15962,-4.96746 0.1404,-7.45217 -0.13376,-2.23262 -0.62357,-2.04411 -2.79067,-1.99677 -2.38684,0.0335 -4.77402,0.11315 -7.15051,0.35223 -4.10037,0.41236 -8.17744,1.03815 -12.28997,1.32496 -2.27265,0.19069 -4.56166,0.29612 -6.83016,0.52513 -5.82115,0.58767 -11.62154,4.98768 8.39692,-6.33577 -0.48001,0.1395 -1.0826,0.17519 -1.33615,0.71703 -0.56425,1.2058 0.30659,2.87659 0.22665,4.11811 0.38824,2.8338 0.64039,5.65129 0.46773,8.51797 -0.0201,3.65552 -0.0337,7.31106 -0.001,10.96654 0.0136,3.2482 0.032,6.49653 -0.0352,9.74435 -0.0775,6.14594 -0.14746,12.29204 -0.17215,18.43846 -0.004,8.09686 0.074,16.19322 0.0941,24.28991 -0.0364,4.99231 -0.004,10.00544 -0.62964,14.96775 -2.39953,5.65236 -0.15601,0.85635 -13.82391,8.73408 -0.97984,0.56475 -2.19245,0.64179 -3.28535,0.77008 -2.00698,0.17068 -3.98781,0.49651 -5.97776,0.79957 -2.24659,0.10082 -4.49685,0.0132 -6.7451,0.0519 -4.17089,0.0335 -8.34117,0.12505 -12.50782,0.32369 -5.36356,0.26558 -10.72211,0.66761 -16.09457,0.69268 0,0 12.11307,-8.80066 12.11307,-8.80066 z"
       inkscape:connector-curvature="0" />
    <path
       style="fill:#000000;fill-opacity:1;fill-rule:nonzero;stroke:none;stroke-width:1px;stroke-linecap:butt;stroke-linejoin:miter;stroke-opacity:1"
       id="path3401"
       d="m 395.93192,503.48965 c 4.45468,0.0699 8.91549,0.18631 13.36531,-0.0595 4.74516,-0.19294 9.43513,-0.93721 14.15057,-1.44929 2.07435,-0.24489 4.20977,-0.24091 6.23619,-0.81539 0.68413,-0.19395 1.32158,-0.52535 1.98282,-0.78691 1.89274,-0.56729 3.70207,-1.29084 5.66701,-1.57975 2.59077,-0.3134 5.20682,-0.32177 7.81282,-0.34616 2.38199,-0.0174 4.76406,-0.0152 7.14609,-0.0141 0.71206,3.9e-4 1.24571,0.0822 1.91369,-0.20528 0.23572,-0.10143 0.85706,-0.56332 0.6332,-0.43788 -4.1153,2.30604 -8.18866,4.68658 -12.31032,6.98122 -0.18434,0.10263 0.35779,-0.23621 0.49007,-0.40057 0.16115,-0.20025 0.24979,-0.4493 0.37468,-0.67395 0.90501,-3.70782 0.44264,-7.5948 0.20204,-11.35818 -0.34058,-4.87616 -0.49564,-9.76263 -0.59377,-14.64887 -0.0576,-4.03595 -0.0847,-8.0724 -0.0874,-12.10875 0.14658,-3.91865 -0.26195,-7.81722 -0.56635,-11.71751 -0.48374,-3.82088 -0.97678,-7.63662 -1.23151,-11.48073 -0.20352,-3.00159 -0.23978,-6.00942 -0.26807,-9.01649 -0.0162,-2.65253 0.009,-5.30505 0.004,-7.95763 0.25013,-1.79159 -0.53918,-4.02433 0.34115,-5.71423 0.18372,-0.35269 0.49135,-0.62542 0.73703,-0.93813 4.73381,-2.5717 9.36023,-5.35176 14.20143,-7.71511 0.58618,-0.28617 1.30044,-0.10512 1.94957,-0.16942 0.80963,-0.0802 1.61678,-0.18441 2.42647,-0.26406 2.91155,-0.28644 5.81221,-0.60939 8.7183,-0.95047 4.61575,-0.57343 9.25468,-0.87282 13.90049,-1.04406 1.88497,0.18562 5.06699,-0.95363 6.42611,0.90753 0.35924,0.49194 0.52101,1.10126 0.78151,1.65189 1.29719,5.46326 0.72005,11.14256 0.48868,16.69525 -0.29427,6.46718 -0.40114,12.94062 -0.42686,19.41379 -0.003,4.28054 0.0514,8.56079 0.0708,12.84118 0.0299,2.93378 0.0311,5.86768 0.0171,8.80155 -0.007,3.09914 -0.009,6.19809 0.0108,9.2972 -0.005,2.57684 0.013,5.15364 0.0232,7.73045 0.008,2.08334 0.009,4.16671 0.0104,6.25007 0.22276,1.72387 0.60507,3.41652 0.79921,5.14687 0.1012,2.1414 0.28986,2.99884 2.26889,3.95767 3.96763,1.11866 8.09587,1.45364 12.16393,2.0251 4.83736,0.6945 9.71578,0.99264 14.59635,1.14328 3.65917,0.0887 7.31995,0.0855 10.97995,0.0728 3.0685,-0.006 6.13692,-0.0254 9.20544,-0.023 2.8245,0.0104 5.64901,-0.007 8.47349,-0.0172 2.13336,-0.008 4.26674,-0.009 6.40012,-0.0105 0.33678,-9e-5 0.67356,-1.8e-4 1.01034,-2.7e-4 0,0 -12.10658,8.79591 -12.10658,8.79591 l 0,0 c -0.33651,-10e-5 -0.67303,-2e-4 -1.00955,-3e-4 -2.1237,-10e-4 -4.24741,-0.003 -6.3711,-0.0105 -2.81039,-0.01 -5.62081,-0.0265 -8.43121,-0.012 -3.0587,0.008 -6.11738,0 -9.17609,4e-5 -3.65043,-0.0127 -7.30196,-0.0143 -10.94996,-0.16766 -4.88517,-0.24133 -9.7625,-0.61492 -14.6076,-1.30488 -4.25367,-0.54842 -8.6526,-0.80749 -12.69052,-2.34782 -2.14336,-1.34997 -2.98072,-2.60115 -3.03335,-5.16114 -0.1706,-1.786 -0.52938,-3.53088 -0.85496,-5.29284 9.5e-4,-2.08689 0.003,-4.17377 0.0104,-6.26064 0.0102,-2.58468 0.0287,-5.16937 0.0232,-7.75408 0.0193,-3.10234 0.0175,-6.20451 0.009,-9.30688 -0.0158,-2.93833 -0.018,-5.8767 0.009,-8.81498 0.0184,-4.32249 0.0788,-8.64497 0.14612,-12.96692 0.0928,-6.48769 0.16807,-12.97613 0.41668,-19.46029 0.21108,-5.29134 0.78865,-10.71449 -0.43143,-15.92123 -0.14087,-0.3 -0.19999,-0.65449 -0.42262,-0.90002 -0.75579,-0.83353 -4.70862,-0.0457 -5.79012,-0.24409 -4.56118,0.14498 -9.11439,0.46218 -13.64652,1.00735 -2.928,0.34349 -5.86354,0.64893 -8.7883,1.01758 -6.30451,0.79465 -12.43271,4.21454 7.12205,-6.10248 -0.3317,0.0827 -0.6922,0.0896 -0.99512,0.248 -1.49402,0.78141 -0.44945,3.82738 -0.72428,5.10657 -0.0104,2.65038 0.003,5.30073 -0.007,7.9511 -0.006,2.99429 0.009,5.99 0.14417,8.98175 0.22697,3.84356 0.64049,7.66687 1.19698,11.4771 0.28811,3.9321 0.78132,7.85628 0.63937,11.8059 -0.004,4.04058 -0.0349,8.0812 0.009,12.12169 0.0579,4.87121 0.16641,9.74325 0.51725,14.60371 0.27497,3.90077 0.76218,7.82355 0.31906,11.73076 -1.18052,6.82251 -10.23459,10.04121 -16.75933,9.90422 -2.36263,-0.009 -4.7254,-0.0245 -7.08798,0.001 -2.56935,0.0469 -5.16023,0.0876 -7.68794,0.59897 -1.87795,0.48953 -3.70526,1.15484 -5.54947,1.75676 -2.68304,0.84829 -5.48773,0.96688 -8.27521,1.20718 -4.7028,0.49982 -9.39009,1.17056 -14.12393,1.319 -4.54872,0.17372 -9.10016,0.0605 -13.6505,0.18221 0,0 12.11307,-8.80067 12.11307,-8.80067 z"
       inkscape:connector-curvature="0" />
    <path
       style="fill:#000000;fill-opacity:1;fill-rule:nonzero;stroke:none;stroke-width:1px;stroke-linecap:butt;stroke-linejoin:miter;stroke-opacity:1"
       id="path3432"
       d="m 173.61237,132.56667 c -1.8468,7.12499 -2.87642,14.43396 -3.91881,21.71072 -1.458,9.75776 -2.5793,19.56098 -3.93235,29.33296 -1.11259,8.75358 -2.30623,17.49809 -3.28827,26.2676 -0.34499,5.2814 -1.23979,10.49304 -2.02903,15.71799 -0.34518,2.59303 -0.19364,1.32569 -0.45937,3.80144 0,0 -13.2686,6.5778 -13.2686,6.5778 l 0,0 c 0.28781,-2.53441 0.12836,-1.23816 0.48191,-3.88833 0.85854,-5.25201 1.85252,-10.48869 2.31783,-15.79605 1.07607,-8.80329 2.41702,-17.57298 3.44549,-26.38277 1.4027,-9.77181 2.52136,-19.58236 3.97822,-29.3472 0.92016,-7.18814 1.8584,-14.38025 3.21155,-21.50197 0,0 13.46143,-6.49219 13.46143,-6.49219 z"
       inkscape:connector-curvature="0" />
    <path
       style="fill:#000000;fill-opacity:1;fill-rule:nonzero;stroke:none;stroke-width:1px;stroke-linecap:butt;stroke-linejoin:miter;stroke-opacity:1"
       id="path3434"
       d="m 141.91079,141.9264 c 10.91177,-3.6636 21.65933,-7.80956 32.50943,-11.65811 13.74861,-4.80009 27.61513,-9.24898 41.44248,-13.81457 4.79717,-1.59917 9.5452,-3.46034 14.56861,-4.20903 0.40711,-0.0372 0.81422,-0.0745 1.22133,-0.11169 0,0 -11.98022,8.91055 -11.98022,8.91055 l 0,0 c -0.38285,0.0515 -0.76571,0.10299 -1.14857,0.15449 -4.75615,0.87089 -9.31159,2.52698 -13.91147,3.97892 -13.68924,4.31492 -27.3846,8.62338 -40.90371,13.45202 -11.2279,4.07106 -22.34519,8.43957 -33.60595,12.41384 0,0 11.80807,-9.11642 11.80807,-9.11642 z"
       inkscape:connector-curvature="0" />
    <path
       style="fill:#000000;fill-opacity:1;fill-rule:nonzero;stroke:none;stroke-width:1px;stroke-linecap:butt;stroke-linejoin:miter;stroke-opacity:1"
       id="path3436"
       d="m 178.72366,186.24016 c 22.59843,-12.70443 11.27825,-7.38041 7.05803,-3.15258 -1.3376,1.60786 -1.65796,3.60742 -1.84074,5.62224 -0.0568,1.94533 -0.21063,3.91453 0.007,5.85349 0.43776,1.42886 2.07418,1.33627 3.32092,1.42435 2.25219,0.1626 3.3601,0.22607 5.2151,-1.13484 5.27314,-3.10153 -4.9891,2.93837 -11.14856,6.39409 -0.25226,0.14154 0.46686,-0.34404 0.67732,-0.54247 0.71368,-0.6729 1.22699,-1.49213 1.74417,-2.31466 1.16101,-1.97048 1.84843,-4.19119 2.39068,-6.40192 0.45333,-2.04023 0.52951,-4.13233 0.57547,-6.21352 0.0393,-1.87383 -0.85415,-2.65903 -2.56304,-3.04117 -0.89443,-0.1528 -1.80185,-0.17527 -2.70611,-0.20752 0,0 12.16877,-8.71911 12.16877,-8.71911 l 0,0 c 0.9936,0.0943 1.99068,0.18086 2.94173,0.51116 2.07887,0.88439 3.36404,2.34714 3.50184,4.68767 -0.0291,2.17194 -0.0767,4.35365 -0.46381,6.49741 -0.48124,2.34203 -1.20172,4.65116 -2.16451,6.83505 -3.98349,6.73835 -6.8205,7.51867 -16.61088,11.91171 -1.87169,0.74107 -3.81303,0.63719 -5.79029,0.39235 -1.95688,-0.34647 -3.68784,-1.02984 -4.34264,-3.08756 -0.33777,-2.02642 -0.13171,-4.10223 -0.13162,-6.14961 0.12405,-2.22867 0.34687,-4.47746 1.47053,-6.45936 1.16859,-1.72815 2.78584,-3.02901 4.58509,-4.0713 4.60657,-2.66857 9.21354,-5.33643 13.82032,-8.00465 0,0 -11.71483,9.37075 -11.71483,9.37075 z"
       inkscape:connector-curvature="0" />
    <path
       style="fill:#000000;fill-opacity:1;fill-rule:nonzero;stroke:none;stroke-width:1px;stroke-linecap:butt;stroke-linejoin:miter;stroke-opacity:1"
       id="path3438"
       d="m 210.90828,179.12828 c -1.36276,0.44566 -2.65476,1.09916 -3.9386,1.73334 -0.4358,0.21527 -1.70868,0.92728 -1.28733,0.68495 12.45648,-7.16406 15.23891,-9.15559 10.58373,-5.90273 -1.97831,1.35299 -3.49711,3.1725 -4.81941,5.14509 -1.32408,1.87592 -1.8902,4.00242 -2.16455,6.24547 -0.0671,1.55744 -0.68866,3.71629 0.98497,4.58336 0.91717,0.29509 1.89993,0.34823 2.80615,-0.0451 0.21664,-0.094 0.79286,-0.51235 0.58686,-0.39688 -4.12006,2.30944 -8.22074,4.65329 -12.33111,6.97993 1.54993,-1.08174 2.37346,-2.79215 3.25365,-4.40241 0.91542,-1.84333 1.66511,-3.76222 2.44704,-5.66466 0.55697,-1.65543 0.79684,-3.38549 1.2517,-5.07149 0.54851,-1.48501 1.01392,-3.01198 1.60924,-4.4807 2.34845,-6.15793 -1.90131,-1.60781 14.19728,-7.78649 0.0967,-0.0371 0.1256,0.72572 0.19101,1.86491 0.0466,3.26306 -0.45177,6.51636 -0.98927,9.72747 -0.48877,2.74212 -0.78669,5.50989 -0.9381,8.28953 -0.0405,2.13933 -0.47414,4.25266 -0.88386,6.34701 -0.87201,3.09242 -1.75369,6.1811 -2.61476,9.27662 -0.67318,2.7452 -1.6585,5.39139 -2.72504,8.00332 -1.00711,2.16697 -2.20891,4.24505 -3.47261,6.27177 -1.76551,2.62183 -3.55306,5.22619 -5.14565,7.9581 -1.39078,2.64105 -2.92666,5.20429 -4.60034,7.67533 -4.00708,5.28354 -10.4886,9.24157 -16.79656,10.77317 -2.30303,0.31513 -3.52523,0.768 -5.15693,-1.18913 -1.30955,-2.51902 -0.69584,-5.33641 -0.17864,-7.98331 0.38708,-2.14296 1.46348,-3.97257 2.73208,-5.69708 0.17327,-0.1959 0.34653,-0.39179 0.5198,-0.58768 0,0 13.81102,-5.86254 13.81102,-5.86254 l 0,0 c -0.169,0.21206 -0.338,0.42412 -0.507,0.63618 -1.46972,1.32812 -2.55119,3.12211 -3.13665,5.00867 -0.45083,2.14194 -1.28651,4.55834 -0.42048,6.68281 1.12401,0.88182 2.94267,0.1063 4.14744,-0.25834 4.77438,-2.57084 1.5862,-0.86492 -11.42563,6.73304 -0.22828,0.1333 0.46267,-0.25984 0.67142,-0.42202 0.72457,-0.5629 1.45127,-1.15988 2.05516,-1.85309 1.66001,-2.48307 3.42586,-4.90692 4.75407,-7.59882 1.45667,-2.79854 3.26276,-5.39017 4.99937,-8.02023 1.33721,-1.92846 2.40906,-4.01559 3.61744,-6.02485 1.07095,-2.57791 2.17038,-5.15657 2.84709,-7.87265 0.87993,-3.04378 1.66705,-6.11459 2.58234,-9.1478 0.45714,-2.01227 0.79807,-4.09182 0.98213,-6.13758 0.14639,-2.84922 0.45236,-5.6853 0.96757,-8.4933 0.52337,-3.0919 1.06987,-6.21946 1.00321,-9.36444 -0.0161,-0.3051 -0.0276,-0.61048 -0.0484,-0.9153 -0.0142,-0.20838 -0.2367,-0.51801 -0.0567,-0.62403 22.71313,-13.38067 14.23436,-11.14727 12.6436,-5.70237 -0.18749,0.46119 -0.45507,0.88891 -0.62109,1.35825 -0.34761,0.98272 -0.43474,2.06994 -1.08715,2.93961 -0.41252,1.7497 -0.91893,3.44768 -1.19569,5.22942 -0.67463,1.97559 -1.61184,3.85758 -2.41173,5.78395 -0.73124,1.80062 -1.72287,3.5027 -2.91619,5.04231 -4.48835,2.61266 -11.47224,10.54361 -17.69686,7.05545 -1.95841,-1.7337 -1.89086,-3.50209 -1.67404,-5.97437 0.19467,-2.421 0.56058,-4.78823 1.86946,-6.89559 1.30475,-2.04855 2.61821,-4.1897 4.63437,-5.6089 5.9053,-5.00538 13.16126,-8.29097 20.24488,-11.33435 0,0 -11.75369,9.28912 -11.75369,9.28912 z"
       inkscape:connector-curvature="0" />
    <path
       style="fill:#000000;fill-opacity:1;fill-rule:nonzero;stroke:none;stroke-width:1px;stroke-linecap:butt;stroke-linejoin:miter;stroke-opacity:1"
       id="path3440"
       d="m 235.09063,175.90452 c -0.36585,0.16265 -0.73757,0.31269 -1.09755,0.48795 -1.54108,0.75028 -2.90235,1.64365 -2.56688,1.45315 19.70351,-11.18908 13.19507,-8.23285 9.14291,-4.74775 -1.72057,1.52454 -2.63918,3.58401 -3.38621,5.70762 -0.60154,1.90807 -0.69708,3.91079 -0.76004,5.89484 -0.0269,1.39616 -0.13338,3.08872 1.25896,3.82428 0.20381,0.056 0.40461,0.12438 0.61143,0.1679 1.23366,0.25962 2.23436,-0.50811 2.02796,-0.39306 -12.29815,6.85526 -16.22067,9.42206 -11.54716,6.39072 1.5399,-1.43546 2.63452,-3.28131 3.59076,-5.13858 0.94984,-1.96397 1.66262,-4.03135 2.5062,-6.04255 0.69999,-1.79607 1.08712,-3.6869 1.64357,-5.5301 1.95565,-8.07379 -2.70157,-2.05115 14.04938,-9.71825 0.005,2.26732 0.0598,4.53934 -0.0966,6.80204 -0.35329,2.40024 -0.64579,4.80185 -0.79672,7.22367 -0.083,2.43323 -0.55794,4.82916 -0.83378,7.24453 -0.13311,2.00349 -0.25352,3.98058 -0.67199,5.94693 -0.39954,1.86863 -0.48948,3.77498 -0.84154,5.65166 -0.63905,2.69768 -1.5547,5.34209 -2.61331,7.904 -0.98559,2.55914 -2.06282,5.07909 -3.39117,7.47955 -0.95955,1.89739 -1.94097,3.78199 -2.93023,5.66382 -0.97755,1.62469 -1.65568,3.40107 -2.56823,5.05984 -0.72715,1.63317 -1.70628,3.11755 -2.86674,4.4726 -4.92967,4.86005 -11.16684,9.17679 -18.07252,10.27302 -2.34936,0.41736 -4.00135,-0.67777 -5.11135,-2.65914 -0.56136,-1.25169 -0.68572,-2.60828 -0.79595,-3.95664 0,0 13.2912,-6.88673 13.2912,-6.88673 l 0,0 c 0.061,1.13441 0.10182,2.2886 0.50472,3.36547 0.87143,1.58411 2.41351,1.48275 4.02259,1.07469 4.96913,-1.47205 10.79749,-6.00753 -10.09758,6.28811 -1.20512,0.70915 3.54626,-1.74588 2.43597,-1.72231 1.22228,-1.18119 2.38664,-2.52257 3.01596,-4.11725 0.90093,-1.68569 1.77181,-3.36874 2.56631,-5.11229 1.16191,-1.78378 2.0074,-3.75731 2.97844,-5.65452 1.33898,-2.36273 2.63778,-4.75505 3.48913,-7.34924 1.0841,-2.45257 1.98411,-4.9971 2.708,-7.57623 0.32526,-1.8894 0.53235,-3.77092 0.78007,-5.67362 0.41106,-1.9416 0.81014,-3.83089 0.78631,-5.83599 0.25143,-2.40024 0.74099,-4.77263 0.87311,-7.18038 0.1353,-2.43937 0.32679,-4.87778 0.77615,-7.28264 0.29349,-2.16361 0.12875,-4.35337 0.0972,-6.53186 13.89942,-7.59903 14.29988,-11.9197 12.85065,-3.62977 -0.50023,1.91488 -1.13188,3.78058 -1.60865,5.70309 -0.82059,2.05485 -1.6851,4.08914 -2.4573,6.16263 -1.00465,1.95447 -2.0061,3.8705 -3.32815,5.64027 -4.18619,4.77478 -11.51538,10.88825 -17.65985,7.51707 -1.52851,-1.3373 -2.03974,-3.08724 -1.92526,-5.10418 0.0378,-2.10203 0.0924,-4.2206 0.58576,-6.27531 0.6468,-2.30838 1.55104,-4.61615 3.13285,-6.4489 5.61528,-5.49962 12.92216,-9.09488 20.17547,-11.97634 0,0 -11.87631,9.14418 -11.87631,9.14418 z"
       inkscape:connector-curvature="0" />
    <path
       style="fill:#000000;fill-opacity:1;fill-rule:nonzero;stroke:none;stroke-width:1px;stroke-linecap:butt;stroke-linejoin:miter;stroke-opacity:1"
       id="path3442"
       d="m 249.63342,194.58337 c 2.10716,-2.74503 4.00418,-5.61524 5.77399,-8.5861 1.80322,-3.23631 2.87693,-6.82136 4.03578,-10.32503 1.45228,-4.00069 2.88673,-8.0037 4.47658,-11.95247 1.85209,-5.42317 3.30081,-10.98615 4.65977,-16.55154 1.12025,-5.23752 1.72984,-10.57032 2.40254,-15.88042 0.4468,-3.34971 0.57457,-6.72631 0.62095,-10.10146 -0.22388,-1.80258 0.66896,-4.32986 -0.66923,-5.81598 -0.14527,-0.004 -0.30839,-0.0809 -0.43581,-0.011 -0.19884,0.10904 -0.29882,0.34166 -0.45929,0.50191 -0.21466,0.21437 -0.93227,0.76512 -0.66526,0.62111 3.97933,-2.14633 7.80126,-4.58261 11.82666,-6.64122 0.43938,-0.2247 -0.68334,0.71404 -0.99109,1.09983 -0.36867,0.46218 -0.69008,0.96017 -1.03512,1.44026 -3.33892,5.61499 -3.88714,12.28867 -4.75272,18.62567 -1.26941,10.20272 -1.61312,20.48475 -1.79604,30.75443 -0.0818,6.61989 -0.0844,13.24061 0.0104,19.86029 -0.0145,2.95068 0.16058,5.9374 1.0623,8.76052 0.11146,0.20934 0.22292,0.41868 0.33439,0.62802 0,0 -13.02094,7.43845 -13.02094,7.43845 l 0,0 c -0.14655,-0.28885 -0.2931,-0.5777 -0.43965,-0.86654 -0.93103,-3.00452 -1.10884,-6.15806 -1.01669,-9.29393 0.0813,-6.68331 0.0811,-13.36799 0.27852,-20.04945 0.3326,-10.32141 0.79512,-20.64762 1.82793,-30.92588 0.7007,-6.40817 1.00237,-13.11413 3.94313,-18.97573 3.74664,-6.38416 5.6845,-5.41768 15.44199,-11.23954 1.00775,-0.60128 2.02116,-0.0828 2.78717,0.59436 1.4378,2.03201 1.08045,4.38494 1.03174,6.7667 -0.0753,3.43954 -0.14712,6.89188 -0.63729,10.30253 -0.77129,5.38029 -1.50962,10.77039 -2.53426,16.10825 -1.30959,5.5926 -2.75485,11.16434 -4.40281,16.66623 -1.55976,3.9266 -2.99276,7.88144 -4.47084,11.83914 -1.13164,3.58759 -2.25712,7.21813 -3.87002,10.61868 -1.7627,2.92888 -3.46752,5.88414 -5.58348,8.58115 0,0 -13.73331,6.00878 -13.73331,6.00878 z"
       inkscape:connector-curvature="0" />
    <path
       style="fill:#000000;fill-opacity:1;fill-rule:nonzero;stroke:none;stroke-width:1px;stroke-linecap:butt;stroke-linejoin:miter;stroke-opacity:1"
       id="path3446"
       d="m 291.27373,173.9627 c 2.99646,0.31941 6.04262,0.86929 9.05737,0.568 1.28859,-0.16926 2.61966,-0.32018 3.76897,-0.98578 0.22304,-0.12917 0.823,-0.61622 0.59854,-0.48952 -4.10544,2.31737 -8.16724,4.71122 -12.25087,7.06683 1.17148,-1.02105 1.30044,-2.58854 1.11387,-4.03786 -0.47324,-1.52659 -1.35303,-2.76529 -2.65992,-3.67145 -0.92606,-0.47731 -2.24032,-0.67342 -3.19622,-0.10698 -0.22183,0.13145 -0.80143,0.64148 -0.57592,0.51644 4.08192,-2.26326 8.10749,-4.6267 12.16123,-6.94005 -1.4489,1.09676 -1.93024,2.93455 -2.61779,4.54245 -0.99216,2.16796 -1.31382,4.5275 -1.5288,6.87739 -0.17839,2.36515 -0.16802,4.73826 -0.16362,7.1084 0.0163,2.18255 1.38612,3.26379 3.12794,4.29067 1.9198,0.9676 4.05238,1.13698 6.16229,1.23268 1.69667,0.0477 3.39427,0.0284 5.09131,0.018 0,0 -12.1025,8.79999 -12.1025,8.79999 l 0,0 c -1.71746,0.002 -3.4372,0.0113 -5.15137,-0.11209 -2.29348,-0.21893 -4.56107,-0.6321 -6.55748,-1.85901 -2.04662,-1.38534 -3.73267,-2.9637 -3.88062,-5.58816 0.004,-2.40715 -0.009,-4.81701 0.11337,-7.22152 0.18397,-2.46097 0.43483,-4.96034 1.29882,-7.2894 0.72746,-1.76255 1.32235,-3.59094 2.28573,-5.2313 4.70858,-2.78485 11.86578,-11.03371 18.1999,-7.02486 1.49948,1.25539 2.61951,2.7686 3.25013,4.63688 0.34061,1.82192 0.31165,3.62798 -0.48382,5.34588 -6.96898,4.22938 -10.75506,8.63018 -18.03279,8.93602 -3.10544,-0.0546 -6.19276,-0.44116 -9.28153,-0.74168 0,0 12.25378,-8.63993 12.25378,-8.63993 z"
       inkscape:connector-curvature="0" />
    <path
       style="fill:#ff0000;fill-opacity:1;fill-rule:nonzero;stroke:none;stroke-width:1px;stroke-linecap:butt;stroke-linejoin:miter;stroke-opacity:1"
       id="path3452"
       d="m 349.80014,176.22003 c 7.82333,0.3458 15.64424,0.007 23.46123,-0.3107 6.11268,-0.0388 12.18094,-0.64853 18.24992,-1.30227 0.53477,-0.052 1.06953,-0.10407 1.6043,-0.15611 0,0 -11.94034,8.84164 -11.94034,8.84164 l 0,0 c -0.51795,0.0437 -1.0359,0.0873 -1.55385,0.13096 -5.9637,0.51969 -11.93305,0.87017 -17.92097,0.95334 -7.98523,0.28877 -15.96872,0.52332 -23.95885,0.6042 0,0 12.05856,-8.76106 12.05856,-8.76106 z"
       inkscape:connector-curvature="0" />
    <path
       style="fill:#ff0000;fill-opacity:1;fill-rule:nonzero;stroke:none;stroke-width:1px;stroke-linecap:butt;stroke-linejoin:miter;stroke-opacity:1"
       id="path3454"
       d="m 380.02093,164.20382 c 3.32637,2.76815 7.01259,5.09005 10.86348,7.05349 2.61662,0.9926 5.0716,2.13553 6.07713,4.88492 -0.008,0.43914 0.0644,0.88711 -0.0236,1.31744 -0.52676,2.57793 -4.39296,5.79859 -6.22767,7.51967 -3.3293,3.02956 -6.91027,5.75439 -10.26721,8.75239 -1.9133,1.6184 -3.8145,3.21026 -5.52921,5.03907 0,0 -13.79059,5.85732 -13.79059,5.85732 l 0,0 c 1.56617,-2.09011 3.59043,-3.68093 5.6058,-5.31861 3.42784,-2.96853 6.91567,-5.85178 10.3912,-8.76606 2.38881,-2.16024 5.05524,-4.4101 6.69111,-7.20484 -0.46641,-2.32922 -3.51253,-2.98142 -5.2888,-3.99029 -3.8665,-2.13053 -7.54424,-4.57457 -11.11765,-7.16501 0,0 12.61597,-7.97949 12.61597,-7.97949 z"
       inkscape:connector-curvature="0" />
    <path
       style="fill:#000000;fill-opacity:1;fill-rule:nonzero;stroke:none;stroke-width:1px;stroke-linecap:butt;stroke-linejoin:miter;stroke-opacity:1"
       id="path3456"
       d="m 422.30763,216.61293 c 4.73582,0.12427 9.47457,0.0908 14.21149,0.0598 1.60916,-0.19801 3.36091,0.28621 4.94208,-0.22012 0.37584,-0.12035 1.38387,-0.75936 1.0396,-0.56645 -12.26123,6.87062 -15.04004,9.69917 -10.72758,5.57375 3.56475,-5.96252 4.65609,-13.08293 5.87822,-19.82031 1.81966,-11.56481 2.20055,-23.28762 2.39145,-34.97317 0.0897,-6.62715 -0.01,-13.25384 -0.0827,-19.88043 0.0317,-3.46152 -0.46177,-6.89571 -0.80324,-10.33283 -0.90319,-9.79361 0.68443,-6.14358 13.94864,-14.04208 6.47574,-0.7898 13.02292,-0.5214 19.53208,-0.75947 6.19847,-0.15636 12.36461,-0.60146 18.43852,-1.8629 4.51469,-0.94364 3.83306,2.64815 3.02492,5.65146 -1.9032,6.17699 -3.13493,12.50796 -4.13979,18.88356 -1.31735,9.49099 -1.52967,19.08294 -1.67786,28.64894 -0.0816,7.51713 -0.0392,15.03516 0.0224,22.55229 0.0509,4.75397 0.075,9.50816 0.13216,14.26206 0.22292,1.37737 -0.40932,6.02524 0.31081,7.02186 0.18348,0.25392 0.5148,0.35715 0.7722,0.53572 7.7478,1.94489 16.00074,0.77395 23.84683,0.052 9.19337,-0.94225 18.39333,-1.82477 27.61156,-2.48623 0,0 -11.7679,8.66136 -11.7679,8.66136 l 0,0 c -9.06437,0.46655 -18.10728,1.24257 -27.13401,2.18822 -5.42469,0.50592 -10.86139,1.07488 -16.31884,1.0166 -2.07355,-0.0221 -4.84896,-0.14047 -6.92306,-0.71493 -0.69184,-0.19162 -1.31893,-0.56733 -1.9784,-0.85099 -0.39842,-0.4024 -0.88604,-0.73282 -1.19528,-1.20721 -1.10198,-1.69054 -0.1426,-5.50372 -0.41918,-7.49169 0.0488,-4.79167 0.0586,-9.58358 0.0919,-14.37538 0.0407,-7.5633 0.0545,-15.12696 0.18377,-22.68949 0.20832,-9.60877 0.47512,-19.23442 1.55291,-28.79218 0.87846,-6.34873 1.94634,-12.66195 3.63127,-18.85307 0.60616,-1.97329 0.35181,-1.02077 0.75793,-2.74174 0.34528,-1.46313 -1.17739,-0.23785 -2.17096,-0.3661 -6.02739,1.0288 -12.13248,1.2578 -18.23655,1.43627 -1.43251,0.0474 -2.86502,0.0947 -4.29752,0.14207 -1.40708,0.0309 -2.81449,0.0489 -4.22122,0.0928 -3.06441,0.0956 -6.32837,0.0861 -9.33873,0.78113 -0.59479,0.13734 -1.15746,0.3884 -1.73618,0.5826 3.84793,-2.36314 7.69309,-4.73081 11.54381,-7.08942 0.22641,-0.13868 -0.53023,0.20429 -0.67077,0.42955 -0.60601,0.97132 0.18251,3.4006 0.029,4.50835 0.27388,3.50445 0.79783,7.00296 0.71385,10.52327 -0.0489,6.72224 -0.17751,13.44435 -0.38777,20.16347 -0.40148,11.72317 -0.75191,23.47393 -2.23679,35.12146 -1.07332,6.86939 -2.18749,13.83133 -5.00007,20.24581 -5.42138,8.43712 -12.68148,9.95605 -20.86196,9.70942 -4.79179,-0.032 -9.58523,-0.0616 -14.37601,0.0598 0,0 12.0949,-8.78746 12.0949,-8.78746 z"
       inkscape:connector-curvature="0" />
    <rect
       style="fill:none;fill-opacity:1;stroke-width:5;stroke-miterlimit:4;stroke-dasharray:none"
       id="rect3462"
       width="479.82245"
       height="428.30469"
       x="102.02541"
       y="100.79851"
       ry="4.5" />
    <rect
       style="fill:none;fill-opacity:1;stroke-width:5;stroke-miterlimit:4;stroke-dasharray:none"
       id="rect3464"
       width="480.83261"
       height="443.45697"
       x="103.03556"
       y="83.625916"
       ry="4.5" />
    <rect
       style="fill:none;fill-opacity:1;stroke-width:5;stroke-miterlimit:4;stroke-dasharray:none"
       id="rect3466"
       width="465.68033"
       height="446.48746"
       x="107.07617"
       y="88.676674"
       ry="4.5" />
    <path
       style="fill:#000000;fill-opacity:1;fill-rule:nonzero;stroke:none;stroke-width:1px;stroke-linecap:butt;stroke-linejoin:miter;stroke-opacity:1"
       id="path3478"
       d="m 196.28324,59.466075 c 2.72298,-1.960384 5.27528,-4.171674 7.60924,-6.581988 2.35158,-2.545601 4.31283,-5.428737 6.19212,-8.332618 4.01305,-6.637313 -2.17614,-2.854977 14.82671,-8.063912 0.53149,-0.162825 -0.59816,0.93749 -0.8775,1.418074 -0.35738,0.614847 -0.68807,1.244828 -1.0321,1.867241 -2.17352,3.883533 -3.89223,7.933219 -4.96723,12.249634 -0.73625,3.053266 -0.88036,4.749648 0.65597,7.498866 1.46579,1.719412 3.59965,2.119953 5.73407,2.348979 2.47901,0.295095 4.6841,-0.647248 6.8895,-1.618741 0,0 -11.72132,9.240555 -11.72132,9.240555 l 0,0 c -2.36435,0.919262 -4.85387,1.420389 -7.39217,0.983205 -2.52607,-0.483494 -4.8543,-1.367937 -6.44678,-3.509925 -1.71327,-3.072033 -1.93548,-5.092787 -1.06471,-8.540914 1.05666,-4.411118 2.6507,-8.605328 4.86527,-12.575491 0.17164,-0.37231 1.32485,-3.036303 1.65861,-3.211671 4.61454,-2.424653 9.488,-4.322532 14.18718,-6.578788 0.11878,-0.05703 -0.3073,-0.14471 -0.39278,-0.04444 -0.6276,0.73624 -0.52655,1.94299 -1.34652,2.571052 -1.88778,2.950146 -3.79887,5.904743 -6.08373,8.566414 -2.22614,2.52538 -4.80064,4.64828 -7.33406,6.852401 0,0 -13.95977,5.462064 -13.95977,5.462064 z"
       inkscape:connector-curvature="0" />
    <path
       style="fill:#000000;fill-opacity:1;fill-rule:nonzero;stroke:none;stroke-width:1px;stroke-linecap:butt;stroke-linejoin:miter;stroke-opacity:1"
       id="path3480"
       d="m 228.33745,15.359921 c -0.57465,3.294333 -2.69677,5.987735 -3.79915,9.076771 0.27192,-7.410611 -18.55237,10.381483 -10.46243,4.123556 0,0 13.83705,-5.606887 13.83705,-5.606887 l 0,0 c -0.64108,0.605454 -1.044,1.056215 -1.80603,1.507359 -4.73068,2.800719 -11.17118,11.177599 -14.87787,7.117564 -0.17877,-0.195818 -0.16398,-0.504313 -0.24597,-0.75647 0.9114,-3.104347 3.20401,-5.643344 3.8999,-8.845252 0,0 13.4545,-6.616641 13.4545,-6.616641 z"
       inkscape:connector-curvature="0" />
    <path
       style="fill:#000000;fill-opacity:1;fill-rule:nonzero;stroke:none;stroke-width:1px;stroke-linecap:butt;stroke-linejoin:miter;stroke-opacity:1"
       id="path3482"
       d="m 246.59412,43.548708 c -0.1053,3.257972 -0.0795,6.519336 -0.0606,9.778626 0.019,2.455044 0.0344,4.910104 0.0421,7.365209 -0.42099,6.389929 2.46914,1.711472 -13.67663,7.939577 -0.27176,0.104829 -0.39029,-3.965979 -0.40271,-4.237376 -0.12452,-4.599721 -0.13003,-9.201682 -0.15257,-13.802764 0.002,-3.588274 -0.0716,-7.176067 -0.0742,-10.76427 0.0745,-2.431483 -0.19738,-4.88371 0.1251,-7.29933 0,0 13.50112,-6.463735 13.50112,-6.463735 l 0,0 c -0.89626,2.137454 -0.0685,4.740707 -0.36422,7.007017 -0.008,3.611906 -0.0902,7.223363 -0.0763,10.835422 0.001,4.559987 -0.003,9.123027 0.22199,13.678643 0.10377,1.560387 0.0801,1.525208 0.24612,2.951278 0.0254,0.217977 0.27968,0.541001 0.0904,0.652109 -4.33438,2.544788 -8.89879,4.677174 -13.30045,7.103721 -0.10616,0.05852 0.29547,0.129693 0.36251,0.0287 0.15828,-0.23844 0.11748,-0.560194 0.17621,-0.840291 0.008,-2.469398 0.0231,-4.938751 0.0421,-7.408088 0.0186,-3.238674 0.0457,-6.479533 -0.0606,-9.71684 0,0 13.36068,-6.807609 13.36068,-6.807609 z"
       inkscape:connector-curvature="0" />
    <path
       style="fill:#000000;fill-opacity:1;fill-rule:nonzero;stroke:none;stroke-width:1px;stroke-linecap:butt;stroke-linejoin:miter;stroke-opacity:1"
       id="path3484"
       d="m 236.01869,49.000828 c 4.81997,-5.375447 10.03782,-10.366723 15.62514,-14.936018 5.47364,-3.954311 7.28971,-5.400775 16.31028,-9.123124 0.59004,-0.243484 1.18321,0.609107 1.53961,1.138649 1.77672,2.639842 0.96218,7.59324 0.81332,10.474233 -0.74034,9.407395 -1.94735,18.767435 -2.85793,28.157977 -0.13635,2.074505 -0.93223,4.998717 1.08147,6.548303 2.34838,1.807134 6.81548,2.039003 9.56792,2.421864 6.13317,0.565986 12.25309,-0.03292 18.2825,-1.143556 0,0 -11.71389,8.80662 -11.71389,8.80662 l 0,0 c -6.06234,0.880033 -12.20231,1.255667 -18.31447,0.616497 -3.43966,-0.512476 -7.77995,-0.715375 -10.5315,-3.22717 -2.23223,-2.03773 -1.74643,-4.957996 -1.35629,-7.586962 1.17276,-9.359077 2.53247,-18.704688 3.04052,-28.131886 0.0379,-1.602093 0.2216,-5.46489 -0.0241,-7.305145 -0.0699,-0.52342 -0.16456,-1.086917 -0.48161,-1.509212 -0.16513,-0.219944 -1.02888,-0.04522 -0.80077,-0.198871 3.59372,-2.420719 7.3925,-4.522423 11.11128,-6.746253 0.73582,-0.440019 -1.44092,0.929472 -2.16138,1.394208 -5.60525,4.322495 -10.94827,9.095704 -15.366,14.648571 0,0 -13.7641,5.701275 -13.7641,5.701275 z"
       inkscape:connector-curvature="0" />
    <path
       style="fill:#000000;fill-opacity:1;fill-rule:nonzero;stroke:none;stroke-width:1px;stroke-linecap:butt;stroke-linejoin:miter;stroke-opacity:1"
       id="path3486"
       d="m 443.55268,48.706509 c -3.73942,4.150743 -6.92549,8.722496 -9.50683,13.634103 -0.85,2.255842 -3.06865,6.380147 -2.71636,8.861895 0.0431,0.303472 0.21278,0.576512 0.31918,0.864767 2.15517,2.433598 5.78456,2.935354 8.86988,3.460775 0.66967,0.07496 1.33789,0.163392 2.009,0.22488 1.45778,0.133566 2.56872,0.285095 4.00868,-0.06924 0.67589,-0.16632 2.55207,-1.079745 1.94968,-0.737628 -12.64634,7.182222 -13.26232,8.013275 -8.51704,3.815007 3.67325,-3.881158 5.43271,-8.755962 6.48672,-13.833947 0.37863,-3.128042 0.23555,-4.426695 -2.59029,-6.003221 -0.34521,-0.185546 -0.69043,-0.371091 -1.03564,-0.556637 0,0 12.51249,-7.936964 12.51249,-7.936964 l 0,0 c 0.36103,0.206234 0.72206,0.412467 1.08308,0.618702 2.97023,2.033292 3.77086,4.031816 3.31813,7.595269 -1.07923,5.262411 -2.76433,10.400026 -6.25956,14.652433 -5.5077,5.971849 -2.30961,2.927633 -16.67012,10.446968 -0.65678,0.3439 -1.43973,0.398144 -2.17925,0.489604 -2.08303,0.257621 -4.18837,-0.212063 -6.24218,-0.452137 -3.59028,-0.740924 -7.52911,-1.542446 -9.78476,-4.629966 -0.18478,-0.446443 -0.45187,-0.868368 -0.55436,-1.339329 -0.58188,-2.673888 1.77709,-7.155346 2.68947,-9.599637 2.46618,-4.945242 5.57833,-9.491194 9.04684,-13.823956 0,0 13.76324,-5.681736 13.76324,-5.681736 z"
       inkscape:connector-curvature="0" />
    <path
       style="fill:#000000;fill-opacity:1;fill-rule:nonzero;stroke:none;stroke-width:1px;stroke-linecap:butt;stroke-linejoin:miter;stroke-opacity:1"
       id="path3488"
       d="m 479.22281,43.487297 c -2.89122,5.299476 -4.93702,10.993325 -7.07061,16.610794 -1.67037,4.277479 -2.9691,8.678822 -3.63105,13.211751 -0.24613,2.646882 0.93053,2.487125 3.21507,2.68711 5.17129,-1.16365 14.47373,-6.593028 -7.22202,4.818976 -0.51597,0.271401 0.96739,-0.650048 1.41126,-1.023548 0.47013,-0.3956 0.88263,-0.852028 1.32394,-1.278042 2.9078,-2.907646 4.49285,-6.660537 6.25712,-10.268486 1.54402,-3.011367 3.16291,-5.985423 4.74622,-8.977906 2.16409,-4.521308 3.99462,-9.179967 6.23238,-13.667483 1.49011,-3.250745 3.30498,-6.330974 5.33242,-9.28679 0.72192,-1.050924 1.56485,-2.002472 2.43801,-2.933085 0,0 13.77747,-5.589614 13.77747,-5.589614 l 0,0 c -0.90983,0.860504 -1.858,1.69267 -2.53634,2.751727 -2.27358,2.792676 -4.05467,5.955105 -5.64626,9.156434 -2.30531,4.421419 -4.17099,9.017992 -6.11556,13.599439 -1.43254,3.079894 -3.18544,5.997552 -4.79814,8.990176 -1.78627,3.665182 -3.27125,7.55325 -6.03715,10.644826 -4.70938,5.482187 -8.30011,6.068676 -16.74041,10.61144 -0.65171,0.350767 -2.39487,0.763141 -3.13313,0.836976 -0.49031,0.04903 -0.98576,-0.0022 -1.47864,-0.0033 -2.91483,-0.54266 -4.55695,-1.501876 -4.36425,-4.671816 0.69439,-4.691076 2.08319,-9.241536 3.85032,-13.653652 2.12293,-5.528448 4.10818,-11.12025 6.52153,-16.534335 0,0 13.66782,-6.031551 13.66782,-6.031551 z"
       inkscape:connector-curvature="0" />
    <path
       style="fill:#000000;fill-opacity:1;fill-rule:nonzero;stroke:none;stroke-width:1px;stroke-linecap:butt;stroke-linejoin:miter;stroke-opacity:1"
       id="path3490"
       d="m 530.59687,10.800365 c -4.34542,8.435385 -8.0532,17.193107 -11.33753,26.090407 -2.67025,7.629101 -4.52166,15.510502 -6.44618,23.351494 -1.03215,3.976606 -1.70114,8.024216 -2.00239,12.118296 0.14711,1.444051 -0.85782,4.131165 0.58096,5.179137 0.31126,0.226712 0.6926,0.336789 1.0389,0.505183 5.69236,1.707929 11.58617,0.466438 17.25191,-0.703827 4.93918,-1.1466 10.0338,-2.183759 14.62993,-4.400318 0,0 -11.6563,9.215683 -11.6563,9.215683 l 0,0 c -4.6894,1.782314 -9.59086,2.929574 -14.50343,3.908117 -5.99359,1.117298 -12.35489,2.376563 -18.22691,0.06353 -0.45859,-0.319276 -0.97349,-0.570005 -1.37578,-0.957827 -1.70537,-1.644036 -1.11046,-4.062944 -1.04533,-6.157927 0.33742,-4.220268 1.03632,-8.393277 2.16114,-12.47987 2.09933,-7.92389 4.06468,-15.898609 6.74287,-23.653159 3.19613,-8.771558 6.97796,-17.301593 10.56609,-25.915872 0,0 13.62205,-6.163048 13.62205,-6.163048 z"
       inkscape:connector-curvature="0" />
    <path
       style="fill:#000000;fill-opacity:1;fill-rule:nonzero;stroke:none;stroke-width:1px;stroke-linecap:butt;stroke-linejoin:miter;stroke-opacity:1"
       id="path3492"
       d="m 519.04279,47.119206 c -5.05098,0.384003 -10.09842,1.568489 -14.92862,3.056129 -3.34289,1.230534 -6.72824,2.454423 -9.87904,4.111915 -0.38068,0.184488 -1.50987,0.761273 -1.14204,0.553464 25.53019,-14.423392 4.15511,-2.204088 -3.34342,1.943964 0,0 11.66201,-9.171818 11.66201,-9.171818 l 0,0 c 4.85605,-2.523092 1.87609,-0.987222 -11.20722,6.383017 -0.28193,0.158821 0.54884,-0.342119 0.83037,-0.501617 13.70506,-7.764461 9.00151,-5.480343 14.82817,-8.27203 3.2445,-1.429835 6.51108,-2.830079 9.9289,-3.825224 5.01855,-1.299435 10.12971,-2.55034 15.32762,-2.836095 0,0 -12.07673,8.558295 -12.07673,8.558295 z"
       inkscape:connector-curvature="0" />
    <path
       style="fill:#00ff00;fill-opacity:1;fill-rule:nonzero;stroke:none;stroke-width:1px;stroke-linecap:butt;stroke-linejoin:miter;stroke-opacity:1"
       id="path3494"
       d="m 169.15523,82.112461 c 3.73085,0.08552 7.46343,0.06257 11.19496,0.04394 2.64889,-0.013 5.29777,-0.03919 7.94672,-0.03093 2.53709,0.0094 5.07416,0.0057 7.61126,-4.84e-4 2.85328,0.01049 5.70672,0.0098 8.56001,0.02652 4.64642,0.02939 9.29294,0.04501 13.93944,0.05744 6.2186,0.0318 12.43729,0.017 18.65593,0.02798 7.11104,-0.0391 14.22351,0.142945 21.33113,-0.106411 6.53506,-0.116222 13.01974,-0.916482 19.52288,-1.482948 5.49819,-0.440973 11.02049,-0.248766 16.52015,-0.608203 3.8805,-0.07443 7.65686,-0.918381 11.4687,-1.533332 2.18506,-0.344906 4.39729,-0.409036 6.60468,-0.439137 2.19094,-0.01734 4.38196,0.0011 6.57286,0.0163 1.29398,0.0057 2.58798,0.0037 3.88197,0.0023 0,0 -12.0707,8.76797 -12.0707,8.76797 l 0,0 c -1.2921,-0.004 -2.5842,-0.009 -3.87631,-0.007 -2.19856,0.008 -4.39739,0.003 -6.59567,0.0436 -2.15174,0.065 -4.30225,0.20058 -6.42737,0.56405 -3.76988,0.60678 -7.54086,1.17743 -11.3685,1.2636 -5.49965,0.23198 -11.01347,0.16131 -16.50188,0.65074 -6.45504,0.52998 -12.90312,1.16644 -19.38434,1.28534 -7.14733,0.19904 -14.29847,0.0992 -21.44804,0.13525 -6.24432,0.011 -12.48869,-0.004 -18.73296,0.028 -4.69921,0.0125 -9.39844,0.0282 -14.09757,0.0575 -2.87762,0.0166 -5.7554,0.016 -8.63301,0.0265 -2.53665,-0.006 -5.07328,-0.01 -7.60993,-4.8e-4 -2.62056,0.008 -5.24106,-0.0176 -7.86157,-0.0309 -3.77187,-0.0191 -7.54469,-0.0399 -11.31592,0.0439 0,0 12.11308,-8.800667 12.11308,-8.800667 z"
       inkscape:connector-curvature="0" />
    <path
       style="fill:#00ff00;fill-opacity:1;fill-rule:nonzero;stroke:none;stroke-width:1px;stroke-linecap:butt;stroke-linejoin:miter;stroke-opacity:1"
       id="path3496"
       d="m 414.40953,91.192208 c 12.20245,-1.483722 24.39464,-2.906035 36.65447,-3.875036 15.79444,-1.141236 31.62975,-1.499811 47.45968,-1.685501 13.72559,-0.106354 27.45167,-0.04579 41.1775,-0.0551 10.30384,-0.01657 20.60758,-0.06223 30.91117,-0.134784 3.35102,-0.02902 6.70189,-0.07128 10.0528,-0.109173 0,0 -11.98696,8.708876 -11.98696,8.708876 l 0,0 c -3.24909,-0.03851 -6.49812,-0.08206 -9.7473,-0.11334 -10.15946,-0.08126 -20.31906,-0.141591 -30.47877,-0.18035 -13.70695,-0.03642 -27.41417,-0.0401 -41.12101,0.03318 -15.72918,0.13588 -31.46892,0.374408 -47.15921,1.588134 -12.64684,1.095313 -25.2027,2.719432 -37.74018,4.692506 0,0 11.97781,-8.869412 11.97781,-8.869412 z"
       inkscape:connector-curvature="0" />
    <path
       style="fill:#000000;fill-opacity:1;fill-rule:nonzero;stroke:none;stroke-width:1px;stroke-linecap:butt;stroke-linejoin:miter;stroke-opacity:1"
       id="path3360"
       d="m 143.60463,498.09859 c 7.98675,0.74761 16.01731,0.72768 24.02611,1.05744 7.68127,0.18857 15.33377,0.83805 22.99251,1.40649 0.71909,0.0482 1.43818,0.19279 2.15727,0.14462 0.54301,-0.0364 1.05608,-0.26349 1.58412,-0.39523 -3.88099,2.09847 -7.62016,4.48363 -11.64298,6.29543 -0.5592,0.25185 0.79902,-0.95433 1.03798,-1.51916 0.83518,-1.97412 0.84484,-4.08536 1.05138,-6.176 0.34772,-12.66496 0.0563,-25.34323 -0.11612,-38.01039 -0.10126,-9.47077 -0.32529,-18.93947 -0.56825,-28.40745 -0.11689,-4.12319 -0.0537,-8.24772 -0.061,-12.37164 0.0552,-2.55798 -0.0716,-5.11926 -0.0272,-7.67686 0.009,-0.49222 -0.0546,-0.99876 0.0691,-1.47526 0.13987,-0.5387 0.4711,-1.00852 0.70665,-1.51279 4.84399,-2.77585 9.53874,-5.83011 14.53198,-8.32754 0.6049,-0.30255 6.48575,-0.67837 6.67925,-0.68897 5.18253,-0.28391 10.3853,-0.2788 15.57263,-0.43967 6.79708,-0.35616 13.58518,-0.8599 20.37342,-1.35188 0,0 -11.58098,8.52697 -11.58098,8.52697 l 0,0 c -6.71919,0.366 -13.43479,0.79296 -20.15501,1.14007 -5.26265,0.19812 -10.56435,0.23358 -15.81057,0.73509 -1.26988,0.1214 -2.54156,0.25523 -3.79567,0.48878 -0.97081,0.18079 -3.65437,1.3458 -2.86556,0.7517 3.36819,-2.53682 7.16038,-4.45528 10.74058,-6.68292 -0.3591,0.23853 -0.857,0.34504 -1.07731,0.7156 -0.62103,1.04458 0.036,7.54252 -0.20494,9.09479 -0.0104,4.14043 0.0452,8.28122 -0.0485,12.42124 -0.17686,9.58729 -0.27053,19.17664 -0.16093,28.76545 0.13818,12.60875 0.49324,25.21173 0.73487,37.81838 -0.0293,0.9531 -0.16059,7.96964 -1.2026,8.69547 -8.83688,6.15545 -10.31906,8.80562 -17.86549,7.96322 -7.5185,-0.7469 -15.04302,-1.41664 -22.601,-1.60251 -8.19389,-0.298 -16.39646,-0.29878 -24.58575,-0.73557 0,0 12.11194,-8.6469 12.11194,-8.6469 z"
       inkscape:connector-curvature="0" />
    <path
       style="fill:#000000;fill-opacity:1;fill-rule:nonzero;stroke:none;stroke-width:1px;stroke-linecap:butt;stroke-linejoin:miter;stroke-opacity:1"
       id="path3362"
       d="m 167.091,460.13391 c 1.69855,-2.37746 3.59053,-4.60217 5.27517,-6.99074 1.3372,-1.716 2.70467,-3.38206 3.7777,-5.27947 1.0964,-1.50579 1.41291,-3.24925 1.73119,-5.03574 0.35724,-1.97755 1.01986,-3.87558 1.49587,-5.82307 0.44808,-1.79112 1.1451,-3.50601 1.74489,-5.24872 2.76842,-7.65803 0.4423,-3.19416 15.03367,-9.23545 0.69469,2.28691 1.55165,4.52608 2.39829,6.7612 0.94021,2.26337 2.19808,4.35929 3.47906,6.44069 1.12563,2.1175 2.42616,4.12975 4.12801,5.82659 1.24376,1.34813 2.73693,2.56279 4.42769,3.30095 1.30468,0.79905 2.77121,1.11854 4.26266,1.33964 0,0 -12.27414,8.57365 -12.27414,8.57365 l 0,0 c -1.58408,-0.35705 -3.1088,-0.86429 -4.52376,-1.67956 -1.7313,-0.99453 -3.32052,-2.24478 -4.6292,-3.75899 -1.71172,-1.8289 -3.15114,-3.87155 -4.29692,-6.10338 -1.32849,-2.16195 -2.6179,-4.34532 -3.60481,-6.68951 -0.85897,-2.23322 -1.71308,-4.47499 -2.47984,-6.73897 4.41464,-2.43954 8.86963,-4.80746 13.24394,-7.31862 0.10133,-0.0582 -0.24854,-0.16401 -0.33882,-0.0898 -0.59996,0.49294 -0.58445,2.42654 -1.28385,2.98079 -0.49546,1.74863 -1.18712,3.43192 -1.80884,5.1378 -0.39385,1.9738 -1.09912,3.84525 -1.49725,5.81629 -0.47809,1.84416 -0.38151,3.84638 -1.5073,5.49397 -1.23227,1.82309 -2.13884,3.87478 -3.8151,5.39145 -1.65908,2.37031 -3.43681,4.63658 -5.205,6.92025 0,0 -13.73331,6.00879 -13.73331,6.00879 z"
       inkscape:connector-curvature="0" />
    <path
       style="fill:#000000;fill-opacity:1;fill-rule:nonzero;stroke:none;stroke-width:1px;stroke-linecap:butt;stroke-linejoin:miter;stroke-opacity:1"
       id="path3383"
       d="m 257.92641,447.34123 c -0.10458,4.2412 -0.21992,8.49213 -7.4e-4,12.73049 0.28378,3.2101 0.68565,6.40451 0.83956,9.62459 0.11231,2.55876 0.14693,5.1199 0.16459,7.68077 0.01,2.07077 0.007,4.14158 0.006,6.21237 -10e-4,2.01499 -0.002,4.02998 -0.002,6.04497 -0.40504,6.30865 -1.2426,3.09599 -13.6618,8.38299 -0.24481,0.10422 -0.56878,-2.69699 -0.5822,-2.83927 -0.10886,-2.55351 -0.54238,-5.07858 -0.79334,-7.62143 -0.45951,-2.51929 -0.88116,-5.03762 -1.09092,-7.5916 0.009,-3.00035 -0.45082,-5.95808 -0.77974,-8.93108 -0.27408,-2.48307 -0.38543,-4.97886 -0.44323,-7.47497 -0.18139,-3.02757 0.0314,-4.54427 1.95961,-6.99068 6.87511,-6.3088 15.65051,-10.41483 24.21815,-14.0227 3.41638,-1.37305 7.01214,-1.93774 10.65977,-2.18052 2.54997,-0.29059 4.78324,0.66832 6.5804,2.4228 2.09787,2.69917 2.03446,6.26185 1.8543,9.5118 -0.78757,5.97394 -3.58341,10.3265 -7.69245,14.57672 -2.03034,1.74931 -4.13263,3.44963 -6.47296,4.77463 -7.97786,4.51678 -11.28786,7.50217 -18.48729,9.29125 -2.02753,0.51604 -4.13261,0.35818 -6.18887,0.5633 -0.37075,0.037 -1.42057,0.39256 -1.09892,0.20448 4.05314,-2.37003 8.23064,-4.52072 12.34596,-6.78108 -0.10997,0.003 -0.29587,-0.095 -0.32989,0.01 -0.32054,0.98563 4.42598,6.02613 5.13375,6.76002 2.81539,3.03208 5.72979,5.90826 9.1122,8.29468 1.75448,1.0442 3.83461,2.20226 5.8354,1.2526 1.70378,-0.9703 3.4214,-1.70293 5.35097,-2.09842 2.37859,-0.31979 4.79536,0.221 6.96002,1.2037 0.31071,0.14118 0.62141,0.28236 0.93212,0.42354 0,0 -12.46519,8.28347 -12.46519,8.28347 l 0,0 c -0.29814,-0.12924 -0.59629,-0.25848 -0.89444,-0.38772 -2.08387,-0.72363 -4.25597,-1.05511 -6.4147,-0.42019 -1.85158,0.58947 -3.50801,1.63355 -5.40801,2.06151 -2.38734,0.042 -4.53092,-0.98682 -6.44939,-2.35605 -3.35062,-2.52833 -6.18598,-5.59245 -9.10117,-8.6001 -2.31552,-2.38809 -1.19371,-1.13943 -3.21504,-3.5638 -1.35829,-1.62914 -2.91811,-3.17855 -3.0347,-5.41497 4.53967,-2.53377 9.00704,-5.20163 13.61899,-7.60131 0.13039,-0.0678 4.7968,-0.3886 5.41804,-0.50194 0.55095,-0.10052 1.09442,-0.23835 1.64163,-0.35753 5.72479,-1.72695 9.55811,-4.94691 -6.97115,5.01881 -0.70876,0.42733 1.46524,-0.77338 2.16579,-1.21405 1.38239,-0.86958 3.23157,-2.3068 4.52113,-3.27771 4.40753,-4.0102 6.88354,-7.62021 8.01052,-13.54277 0.22721,-2.72053 0.36037,-5.94707 -1.39167,-8.23061 -1.73152,-1.39901 -3.63511,-1.75971 -5.83691,-1.46169 -3.5198,0.32419 -6.97128,1.04292 -10.22927,2.46261 -0.71477,0.3155 -1.43495,0.61901 -2.1443,0.94652 -0.76452,0.35299 -1.52377,0.71765 -2.2767,1.0947 -3.46574,1.73557 -14.63831,8.03839 8.41497,-5.07929 0.56088,-0.31915 -1.07603,0.71358 -1.59631,1.09536 -0.47129,0.34584 -0.91784,0.72419 -1.37676,1.08628 -2.28388,2.1712 -2.48142,2.80937 -2.35024,5.93577 0.0265,2.46398 0.0829,4.92997 0.32349,7.38405 0.31679,2.98381 0.79362,5.95161 0.81888,8.95883 0.19567,2.54953 0.55719,5.07118 1.08355,7.57455 0.21684,2.54395 0.66443,5.0571 0.85777,7.5985 0.043,0.5654 0.24908,1.91375 0.20022,1.94274 -24.36062,14.45371 -13.67134,11.45315 -12.57389,6.21937 6e-5,-2.0154 6e-5,-4.0308 0.002,-6.04619 0.003,-2.0725 0.007,-4.14499 0.0147,-6.21747 0.006,-2.55033 0.0149,-5.10151 -0.0761,-7.65065 -0.15124,-3.23258 -0.44812,-6.45334 -0.71179,-9.67822 -0.24343,-4.22867 -0.0523,-8.46504 -0.24239,-12.69701 0,0 13.34067,-6.79741 13.34067,-6.79741 z"
       inkscape:connector-curvature="0" />
  </g>
</svg>
