<svg xmlns="http://www.w3.org/2000/svg" width="396.685" height="254.461" viewBox="0 0 104.95637 67.326178"><defs><marker orient="auto" id="a" overflow="visible"><path d="M2.308 0l-3.46 2v-4z" fill="red" fill-rule="evenodd" stroke="red" stroke-width=".5332"/></marker></defs><g transform="translate(-54.29 -50.022)"><path d="M123.88 69.103c2.17 3.317 4.013 2.718 5.68 0" fill="none" stroke="#00f" stroke-width=".529" stroke-linecap="round"/><path d="M132.326 95.38V51.614h-11.225v43.497" fill="none" stroke="#00f" stroke-width="1.323" stroke-linecap="round"/><ellipse cx="112.489" cy="97.866" rx="7.009" ry="2.635" transform="rotate(-1.418)" fill="#00f" stroke="#00f" stroke-width=".265" stroke-linecap="round" stroke-linejoin="round"/><ellipse cx="-140.807" cy="91.678" rx="7.009" ry="2.635" transform="scale(-1 1) rotate(-1.418)" fill="#00f" stroke="#00f" stroke-width=".265" stroke-linecap="round" stroke-linejoin="round"/><path d="M124.8 59.416v3.875M128.39 59.416v3.875" fill="none" stroke="#00f" stroke-width=".529"/><path d="M85.794 74.097h21.381" fill="red" stroke="red" stroke-width="2.646" marker-end="url(#a)"/><g transform="matrix(.842 0 0 .842 62.024 42.68)" stroke="green" stroke-linecap="round"><circle r="14.559" cy="73.815" cx="100.602" fill="#ececec" stroke-width=".608" stroke-linejoin="round"/><path d="M106.978 82.142h-3.353V63.316H97.54v18.678h-3.652" fill="none" stroke-width="1.521"/></g><g fill="none" stroke="#00f" stroke-linecap="round"><path d="M67.528 82.456l6.026 7.975-5.054 6.03 1.749 1.556m-3.96-15.367l-3.5 7.976-7.97 1.555.583 2.529" stroke-width="1.058" stroke-linejoin="round"/><path d="M67.258 52.035v29.942" stroke-width="3.969"/><path d="M56.469 72.226L67.157 82.68l10.351-10.453" stroke-width="3.969" stroke-linejoin="round"/></g></g></svg>