<?xml version="1.0" encoding="UTF-8" standalone="no"?>
<!-- Created with Inkscape (http://www.inkscape.org/) -->

<svg
   xmlns:dc="http://purl.org/dc/elements/1.1/"
   xmlns:cc="http://creativecommons.org/ns#"
   xmlns:rdf="http://www.w3.org/1999/02/22-rdf-syntax-ns#"
   xmlns:svg="http://www.w3.org/2000/svg"
   xmlns="http://www.w3.org/2000/svg"
   xmlns:sodipodi="http://sodipodi.sourceforge.net/DTD/sodipodi-0.dtd"
   xmlns:inkscape="http://www.inkscape.org/namespaces/inkscape"
   width="138.91165mm"
   height="89.084755mm"
   viewBox="0 0 492.20664 315.65464"
   id="svg2"
   version="1.1"
   inkscape:version="0.92.4 (5da689c313, 2019-01-14)"
   sodipodi:docname="PulseInSinc.svg">
  <defs
     id="defs4" />
  <sodipodi:namedview
     id="base"
     pagecolor="#ffffff"
     bordercolor="#666666"
     borderopacity="1.0"
     inkscape:pageopacity="0.0"
     inkscape:pageshadow="2"
     inkscape:zoom="1.4142136"
     inkscape:cx="262"
     inkscape:cy="196.67794"
     inkscape:document-units="px"
     inkscape:current-layer="layer1"
     showgrid="false"
     inkscape:window-width="1825"
     inkscape:window-height="1046"
     inkscape:window-x="-11"
     inkscape:window-y="-11"
     inkscape:window-maximized="1"
     fit-margin-top="0"
     fit-margin-left="0"
     fit-margin-right="0"
     fit-margin-bottom="0" />
  <metadata
     id="metadata7">
    <rdf:RDF>
      <cc:Work
         rdf:about="">
        <dc:format>image/svg+xml</dc:format>
        <dc:type
           rdf:resource="http://purl.org/dc/dcmitype/StillImage" />
        <dc:title></dc:title>
      </cc:Work>
    </rdf:RDF>
  </metadata>
  <g
     inkscape:label="Capa 1"
     inkscape:groupmode="layer"
     id="layer1"
     transform="translate(-113,-98.396551)">
    <path
       style="fill:none;fill-rule:evenodd;stroke:#4600fc;stroke-width:4;stroke-linecap:butt;stroke-linejoin:miter;stroke-miterlimit:4;stroke-dasharray:none;stroke-opacity:1"
       d="m 113,174.41245 h 73 v -72 l 249,-2 1,70 87,1"
       id="path3336"
       inkscape:connector-curvature="0" />
    <path
       style="fill:none;fill-rule:evenodd;stroke:#008800;stroke-width:4;stroke-linecap:butt;stroke-linejoin:miter;stroke-miterlimit:4;stroke-dasharray:none;stroke-opacity:1"
       d="m 120.20815,258.98839 70.71068,-0.7071 0.70711,-55.86144 h 18.38477 v 55.86144 l 21.21321,0.7071 0.7071,-58.68986 21.92031,0.70711 -0.7071,57.27565 19.09188,-0.70711 3.53553,-0.70711 v -57.98275 l 20.5061,0.7071 1.41421,57.98276 21.21321,-0.70711 -0.70711,-60.81118 22.62742,-0.70711 0.7071,61.51829 h 21.92032 l -2.12133,-62.9325 h 21.21321 l 2.12132,62.2254 23.33452,-0.70711 -2.82842,-62.9325 21.92031,-1.41422 1.41421,62.2254 49.49747,-0.70711"
       id="path3340"
       inkscape:connector-curvature="0" />
    <path
       style="fill:#ff0000;fill-opacity:1;fill-rule:nonzero;stroke:none;stroke-width:1px;stroke-linecap:butt;stroke-linejoin:miter;stroke-opacity:1"
       id="path3342"
       d="m 484.16718,204.70708 c 2.44006,-0.71242 4.85991,-1.48378 7.27779,-2.27056 1.93348,-0.63464 3.96313,-0.84438 5.98446,-0.95129 1.49931,-0.0564 3.00006,-0.0414 4.50007,-0.035 1.29421,-0.056 2.50212,0.39125 3.50919,1.18262 0.85154,0.6675 1.58386,1.42533 2.5816,1.88333 1.21671,0.42981 2.51972,0.45375 3.79555,0.48795 0.23252,0.003 0.46504,0.006 0.69756,0.009 0,0 -8.48979,6.13702 -8.48979,6.13702 v 0 c -0.2369,-0.008 -0.47381,-0.0168 -0.71072,-0.0253 -1.39349,-0.0854 -2.80444,-0.21516 -4.0699,-0.85857 -0.9696,-0.5659 -1.77662,-1.31595 -2.67051,-1.98515 -0.96396,-0.5697 -2.00217,-0.74254 -3.11918,-0.67686 -1.47922,-0.004 -2.96001,-0.0138 -4.43711,0.0787 -1.96043,0.1552 -3.90507,0.45647 -5.76854,1.11155 -2.45759,0.79403 -4.93204,1.53329 -7.39388,2.31378 0,0 8.31341,-6.40093 8.31341,-6.40093 z"
       inkscape:connector-curvature="0" />
    <path
       style="fill:#ff0000;fill-opacity:1;fill-rule:nonzero;stroke:none;stroke-width:1px;stroke-linecap:butt;stroke-linejoin:miter;stroke-opacity:1"
       id="path3344"
       d="m 486.41693,220.41605 c 2.6225,-0.3033 5.23142,-0.73528 7.86054,-1.01686 1.81231,-0.38273 3.62755,-0.72306 5.47403,-0.88087 1.43128,-0.0974 2.86677,-0.0937 4.30059,-0.0945 1.40894,0.002 2.81788,0.006 4.22683,0.008 0.94219,0.001 1.88439,0.001 2.82659,0.002 0,0 -8.47484,6.15681 -8.47484,6.15681 v 0 c -0.94246,-4.8e-4 -1.88492,-0.001 -2.82739,-0.002 -1.40805,-0.002 -2.81612,-0.007 -4.22417,-0.003 -1.41179,0.0101 -2.82616,0.0237 -4.23186,0.1698 -1.80966,0.21192 -3.59001,0.59453 -5.3959,0.83238 -2.6562,0.2917 -5.28925,0.72871 -7.93553,1.09393 0,0 8.40111,-6.26485 8.40111,-6.26485 z"
       inkscape:connector-curvature="0" />
    <path
       style="fill:#280b0b;fill-opacity:1;fill-rule:nonzero;stroke:none;stroke-width:1px;stroke-linecap:butt;stroke-linejoin:miter;stroke-opacity:1"
       id="path3369"
       d="m 497.74719,267.66984 c 2.03254,0.92649 4.24074,1.27284 6.44166,1.51437 1.62809,0.0579 3.20828,-0.39375 4.66534,-1.10418 0.37612,-0.18338 1.4424,-0.84897 1.07852,-0.64236 -2.59143,1.47145 -5.17427,2.95799 -7.7614,4.43699 2.81961,-1.7677 4.96215,-4.25235 6.93017,-6.89099 4.11489,-6.03893 7.43888,-12.57005 10.80553,-19.04252 4.49582,-8.88599 8.64087,-17.92687 12.28736,-27.19297 3.17637,-8.53326 5.61763,-17.32659 7.26079,-26.27912 0.95703,-7.1765 1.49787,-14.40253 2.25164,-21.60409 0.59244,-3.81022 0.704,-7.72501 1.67225,-11.47181 3.18652,-1.4938 6.25213,-3.2788 9.55956,-4.4814 0.46118,-0.16769 0.42453,5.96737 0.42592,6.28865 -0.004,2.75022 -6.3e-4,5.50072 -0.0217,8.2509 -0.006,2.60543 -0.016,5.211 -0.006,7.81644 -0.005,2.19834 0.0746,4.39754 -0.0548,6.59304 -0.1888,2.40445 -0.53271,4.78865 -0.86398,7.17598 -0.33576,2.5481 -0.42897,5.11869 -0.46899,7.68577 -0.18581,2.57781 -0.43529,5.15083 -0.78826,7.71124 -0.52739,2.75919 -0.94848,5.5319 -1.17357,8.33213 -0.17003,2.31133 -0.1718,4.62932 -0.18729,6.94539 -0.14619,2.37794 -0.38992,4.7516 -0.7441,7.10769 -0.30319,1.87943 -0.48509,3.7735 -0.5777,5.67402 -0.0569,1.44294 -0.0539,2.88729 -0.0534,4.33107 -0.002,1.90157 -0.0302,3.80293 -0.0294,5.70453 -0.0151,1.81629 -0.059,3.62362 0.3711,5.39794 0.47628,1.57688 0.90334,3.16931 1.39912,4.73991 0.23919,0.77378 0.51634,1.54023 0.83053,2.28708 0.11674,0.2775 0.15519,0.68063 0.43511,0.79145 0.0535,0.0212 0.0124,-0.11433 0.0186,-0.1715 -14.28145,7.67559 -9.21048,7.71914 -8.8356,3.68671 0.0896,-0.96384 0.0771,-1.9398 0.0885,-2.9064 0.002,-2.2714 -0.0223,-4.54268 -0.0272,-6.81404 -0.12429,-2.56713 0.18886,-5.09862 0.60422,-7.62394 0.50332,-3.69309 1.25412,-7.33391 2.12698,-10.95507 1.26725,-5.2401 2.94462,-10.36356 4.54383,-15.50777 1.96594,-6.30897 4.47694,-12.42553 6.94663,-18.54837 3.02645,-7.18967 6.14681,-14.33978 9.58791,-21.34131 3.77263,-7.57126 8.18835,-14.79034 12.35429,-22.14522 2.53111,-4.13579 4.98014,-8.35928 7.96986,-12.19071 1.28019,-1.64062 2.05149,-2.42702 3.42572,-3.9259 1.56276,-1.69629 3.42207,-3.06205 5.31709,-4.35671 0,0 9.65464,-3.76163 9.65464,-3.76163 v 0 c -1.99322,1.21845 -3.93994,2.55449 -5.6036,4.20581 -1.37893,1.42191 -2.2968,2.31621 -3.57965,3.86963 -3.12187,3.78033 -5.63816,8.01535 -8.22746,12.1624 -4.14625,7.33726 -8.5439,14.53639 -12.32808,22.0731 -3.45568,6.95666 -6.54334,14.0799 -9.54948,21.24112 -2.44584,6.07608 -4.89651,12.15956 -6.85445,18.41517 -1.58977,5.11301 -3.22384,10.21567 -4.51151,15.4158 -0.83392,3.56905 -1.49182,7.16709 -1.97652,10.80054 -0.3981,2.46864 -0.80086,4.93714 -0.63701,7.44962 0.009,2.27211 0.0103,4.54423 0.0303,6.81629 0.0786,7.00369 0.84091,3.89626 -9.3663,9.73425 -0.86936,-1.01731 -1.11343,-2.45188 -1.59445,-3.66928 -0.51947,-1.58289 -0.93941,-3.19844 -1.43487,-4.78955 -0.50836,-1.85733 -0.50373,-3.74413 -0.44081,-5.65927 -10e-4,-1.88958 -0.0327,-3.77881 -0.0415,-5.66832 -10e-4,-1.46134 -0.006,-2.9232 0.0464,-4.38384 0.0897,-1.94503 0.27635,-3.883 0.59805,-5.80453 0.35546,-2.3136 0.59453,-4.63347 0.80291,-6.96572 -4.5e-4,-2.34333 0.0131,-4.69015 0.17342,-7.02873 0.23066,-2.81735 0.60583,-5.6136 1.15573,-8.38801 0.34754,-2.52406 0.59974,-5.05376 0.82189,-7.59243 0.063,-2.60183 0.12095,-5.2074 0.42654,-7.79492 0.30214,-2.37043 0.68003,-4.72569 0.86204,-7.11051 0.20811,-2.16954 0.0473,-4.35714 0.11472,-6.53448 0.0119,-2.60888 0.004,-5.21786 0.0178,-7.82674 10e-4,-2.75124 0.0507,-5.50227 0.0494,-8.25356 -0.0122,-1.70048 0.01,-3.41562 -0.19734,-5.10688 -0.0224,-0.18274 -0.24796,-0.44446 -0.0933,-0.54437 2.92464,-1.88954 6.02611,-3.49021 9.03916,-5.23531 -0.65206,1.0476 -0.84426,2.27471 -1.06467,3.47746 -0.48324,2.63689 -0.81219,5.30282 -1.21319,7.95237 -0.41558,3.61748 -0.82333,7.22928 -1.13449,10.85759 -0.0966,1.12601 -0.49672,6.153 -0.62708,7.28238 -0.13723,1.18891 -0.33611,2.3699 -0.50416,3.55486 -1.72738,9.05089 -4.28504,17.92408 -7.45778,26.57513 -3.59354,9.25916 -7.61897,18.32672 -12.07417,27.20604 -3.28724,6.42689 -6.51947,12.90628 -10.38596,19.01069 -1.84813,2.74204 -3.89583,5.27252 -6.60839,7.21243 -2.22782,1.29114 -9.1866,6.35496 -13.68355,7.02559 -0.97982,0.14612 -1.47167,0.0719 -2.44718,0.0204 -2.30478,-0.32612 -4.59303,-0.79455 -6.73333,-1.74345 0,0 8.77254,-5.77202 8.77254,-5.77202 z"
       inkscape:connector-curvature="0" />
    <path
       style="fill:#0000ff;fill-opacity:1;fill-rule:nonzero;stroke:none;stroke-width:1px;stroke-linecap:butt;stroke-linejoin:miter;stroke-opacity:1"
       id="path3375"
       d="m 171.5396,151.04366 c 0.83696,-1.49266 1.8286,-2.88719 2.70757,-4.35412 0.68401,-0.98145 1.10375,-2.10671 1.55618,-3.20577 0.43832,-1.13943 1.06334,-2.19764 1.64035,-3.271 0.59404,-1.38013 1.29875,-2.70564 1.91454,-4.07582 0.5893,-1.35299 1.13692,-2.73185 1.53004,-4.15561 0.34141,-1.38301 0.37689,-2.8109 0.42067,-4.22696 0.0259,-1.59159 0.011,-3.1835 0.004,-4.7752 -0.0448,-5.57021 -0.79739,-2.03749 9.34133,-6.67859 -0.0525,2.08125 -0.0616,4.1635 -0.0627,6.24533 -0.0868,2.26241 0.30715,4.48238 0.86359,6.66357 0.59742,1.85932 0.84152,3.79649 1.33138,5.68131 0.21371,1.28785 0.79794,2.357 1.68457,3.29244 0.91792,0.88101 1.87948,1.72392 3.08966,2.15755 1.10151,0.60267 2.31219,0.99656 3.40633,1.61146 1.13254,0.45913 2.20944,1.00599 3.28768,1.57737 0.71951,0.29239 0.36736,0.11515 1.05315,0.53823 0,0 -8.80469,5.72281 -8.80469,5.72281 v 0 c -0.64921,-0.33834 -0.30566,-0.16456 -1.03204,-0.51863 -1.06742,-0.58123 -2.19823,-1.01458 -3.28143,-1.56343 -1.11691,-0.52525 -2.24409,-1.02814 -3.36053,-1.55453 -1.25627,-0.62851 -2.32605,-1.54367 -3.32365,-2.52606 -0.96752,-1.07245 -1.6778,-2.31563 -1.91685,-3.75953 -0.46756,-1.89349 -0.69317,-3.83335 -1.27115,-5.7017 -0.61501,-2.25157 -1.05212,-4.56513 -0.97107,-6.91025 -0.001,-2.06099 -0.0102,-4.1224 -0.062,-6.18282 10.90216,-6.12783 9.29832,-8.51089 9.35254,-2.84838 8.7e-4,1.59873 0.003,3.19746 -7.6e-4,4.79618 -0.004,1.48179 -0.0353,2.97176 -0.30603,4.43315 -0.32936,1.49944 -0.89462,2.91625 -1.45232,4.34234 -0.65147,1.35608 -1.30826,2.71231 -1.8866,4.09838 -0.50508,1.07582 -1.09858,2.107 -1.67358,3.14454 -0.36748,1.19088 -0.90727,2.34519 -1.48147,3.44564 -0.97645,1.36018 -1.76326,2.85796 -2.72919,4.22948 0,0 -9.56747,4.32862 -9.56747,4.32862 z"
       inkscape:connector-curvature="0" />
    <path
       style="fill:#0000ff;fill-opacity:1;fill-rule:nonzero;stroke:none;stroke-width:1px;stroke-linecap:butt;stroke-linejoin:miter;stroke-opacity:1"
       id="path3377"
       d="m 419.25833,111.39924 c 1.91707,1.04355 3.47383,2.52688 5.022,4.03258 1.45416,1.53587 2.66333,3.28205 3.86219,5.02043 1.21065,1.71165 2.31759,3.47026 3.16039,5.39173 0.87755,2.04112 1.84704,4.03862 2.73998,6.07328 0.58543,1.55566 1.04683,3.14197 1.73865,4.65523 0.40792,1.15536 0.92864,2.26687 1.25989,3.44847 0.26884,1.31664 0.61604,2.61545 1.01397,3.89845 0.49467,1.22523 0.38552,2.60628 0.86752,3.82494 0.0953,-3.62529 0.0515,0.0579 -9.14513,4.59161 -0.11567,0.057 0.13164,-0.2242 0.17111,-0.34696 0.28859,-0.89748 0.48326,-1.85652 0.72417,-2.76798 0.81128,-2.63821 1.15557,-5.36788 1.55669,-8.08651 0.38464,-2.35643 0.87298,-4.69801 1.42498,-7.021 0.36236,-1.85659 0.84271,-3.68251 1.3444,-5.50538 0.52646,-1.86028 1.35887,-3.61018 2.39767,-5.23467 1.21004,-1.75052 2.76954,-3.22083 4.34264,-4.63966 1.52603,-1.37365 3.04665,-2.73907 4.73145,-3.91603 1.01025,-0.79934 2.08194,-1.50875 3.13629,-2.24613 0,0 9.77199,-3.8077 9.77199,-3.8077 v 0 c -1.1198,0.66771 -2.21545,1.39979 -3.21085,2.24602 -1.70362,1.14145 -3.30761,2.36703 -4.78385,3.79928 -1.57392,1.35753 -3.13491,2.7532 -4.42235,4.39251 -1.10112,1.504 -1.96498,3.15289 -2.55705,4.92428 -0.4896,1.82213 -1.00325,3.63478 -1.36621,5.48716 -0.58311,2.30204 -1.09658,4.62325 -1.49761,6.96432 -0.48327,2.71756 -0.6911,5.48746 -1.50481,8.14259 -0.18333,0.88252 -0.51149,1.78609 -0.62252,2.68128 -0.024,0.19363 0.14881,0.48224 -0.017,0.58511 -9.23584,5.73056 -7.28165,8.12551 -9.67391,4.86586 -0.44971,-1.26763 -0.43698,-2.6181 -0.85024,-3.89918 -0.40482,-1.29287 -0.79963,-2.59415 -1.05787,-3.92453 -0.28509,-1.13931 -0.80798,-2.19097 -1.16219,-3.30826 -0.67605,-1.5309 -1.15802,-3.11766 -1.68463,-4.70432 -0.86485,-2.0476 -1.85969,-4.03298 -2.73099,-6.07731 -0.79552,-1.87484 -1.93358,-3.53331 -3.09414,-5.20074 -1.1405,-1.69476 -2.29157,-3.40215 -3.73005,-4.86109 -1.47037,-1.45759 -3.01214,-2.84991 -4.92713,-3.70566 0,0 8.77253,-5.77202 8.77253,-5.77202 z"
       inkscape:connector-curvature="0" />
    <flowRoot
       xml:space="preserve"
       id="flowRoot14"
       style="font-style:normal;font-weight:normal;font-size:40px;line-height:1.25;font-family:sans-serif;letter-spacing:0px;word-spacing:0px;fill:#000000;fill-opacity:1;stroke:none"
       transform="matrix(0.93750003,0,0,0.93750003,113,98.396551)"><flowRegion
         id="flowRegion16"><rect
           id="rect18"
           width="72.831993"
           height="40.305084"
           x="9.1923876"
           y="259.35495" /></flowRegion><flowPara
         id="flowPara20"></flowPara></flowRoot>    <text
       xml:space="preserve"
       style="font-style:normal;font-weight:normal;font-size:37.5px;line-height:1.25;font-family:sans-serif;letter-spacing:0px;word-spacing:0px;fill:#000000;fill-opacity:1;stroke:none;stroke-width:0.93750006"
       x="115.65166"
       y="406.50726"
       id="text24"><tspan
         sodipodi:role="line"
         id="tspan22"
         x="115.65166"
         y="406.50726"
         style="stroke-width:0.93750006">(Sinc)</tspan></text>
    <flowRoot
       xml:space="preserve"
       id="flowRoot26"
       style="font-style:normal;font-weight:normal;font-size:40px;line-height:1.25;font-family:sans-serif;letter-spacing:0px;word-spacing:0px;fill:#000000;fill-opacity:1;stroke:none"
       transform="matrix(0.93750003,0,0,0.93750003,113,98.396551)"><flowRegion
         id="flowRegion28"><rect
           id="rect30"
           width="188.09039"
           height="70.710678"
           x="12.727921"
           y="236.72754" /></flowRegion><flowPara
         id="flowPara32"></flowPara></flowRoot>  </g>
</svg>
