<svg xmlns="http://www.w3.org/2000/svg" xmlns:xlink="http://www.w3.org/1999/xlink" xmlns:s="https://github.com/nturley/netlistsvg" width="397" height="154.5">
  <style>svg {
    stroke:#000;
    fill:none;
  }
  text {
    fill:#000;
    stroke:none;
    font-size:10px;
    font-weight: bold;
    font-family: "Courier New", monospace;
  }
  .nodelabel {
    text-anchor: middle;
  }
  .inputPortLabel {
    text-anchor: end;
  }
  .splitjoinBody {
    fill:#000;
  }</style>
  <g s:type="inputExt" transform="translate(12,16)" s:width="30" s:height="20">
    <text x="15" y="-4" class="nodelabel" s:attribute="ref">F</text>
    <s:alias val="$_inputExt_"/>
    <path d="M0,0 L0,20 L15,20 L30,10 L15,0 Z"/>
    <g s:x="28" s:y="10" s:pid="Y"/>
  </g>
  <g s:type="inputExt" transform="translate(12,75)" s:width="30" s:height="20">
    <text x="15" y="-4" class="nodelabel" s:attribute="ref">G</text>
    <s:alias val="$_inputExt_"/>
    <path d="M0,0 L0,20 L15,20 L30,10 L15,0 Z"/>
    <g s:x="28" s:y="10" s:pid="Y"/>
  </g>
  <g s:type="inputExt" transform="translate(154,102.5)" s:width="30" s:height="20">
    <text x="15" y="-4" class="nodelabel" s:attribute="ref">H</text>
    <s:alias val="$_inputExt_"/>
    <path d="M0,0 L0,20 L15,20 L30,10 L15,0 Z"/>
    <g s:x="28" s:y="10" s:pid="Y"/>
  </g>
  <g s:type="inputExt" transform="translate(80,122.5)" s:width="30" s:height="20">
    <text x="15" y="-4" class="nodelabel" s:attribute="ref">clk</text>
    <s:alias val="$_inputExt_"/>
    <path d="M0,0 L0,20 L15,20 L30,10 L15,0 Z"/>
    <g s:x="28" s:y="10" s:pid="Y"/>
  </g>
  <g s:type="outputExt" transform="translate(352,31)" s:width="30" s:height="20">
    <text x="15" y="-4" class="nodelabel" s:attribute="ref">K</text>
    <s:alias val="$_outputExt_"/>
    <path d="M30,0 L30,20 L15,20 L0,10 L15,0 Z"/>
    <g s:x="0" s:y="10" s:pid="A"/>
  </g>
  <g s:type="and" transform="translate(83,21)" s:width="30" s:height="25">
    <s:alias val="$and"/>
    <s:alias val="$logic_and"/>
    <s:alias val="$_AND_"/>
    <path d="M0,0 L0,25 L15,25 A15 12.5 0 0 0 15,0 Z"/>
    <g s:x="0" s:y="5" s:pid="A"/>
    <g s:x="0" s:y="20" s:pid="B"/>
    <g s:x="30" s:y="12.5" s:pid="Y"/>
  </g>
  <g s:type="or" transform="translate(222,28.5)" s:width="30" s:height="25">
    <s:alias val="$or"/>
    <s:alias val="$logic_or"/>
    <s:alias val="$_OR_"/>
    <path d="M0,25 L0,25 L15,25 A15 12.5 0 0 0 15,0 L0,0"/>
    <path d="M0,0 A30 25 0 0 1 0,25"/>
    <g s:x="3" s:y="5" s:pid="A"/>
    <g s:x="3" s:y="20" s:pid="B"/>
    <g s:x="30" s:y="12.5" s:pid="Y"/>
  </g>
  <g s:type="dff" transform="translate(155,23.5)" s:width="30" s:height="40">
    <s:alias val="$dff"/>
    <s:alias val="$_DFF_"/>
    <rect width="30" height="40" x="0" y="0"/>
    <path d="M0,35 L5,30 L0,25"/>
    <g s:x="30" s:y="10" s:pid="Q"/>
    <g s:x="0" s:y="30" s:pid="CLK"/>
    <g s:x="0" s:y="10" s:pid="D"/>
  </g>
  <g s:type="dff" transform="translate(287,31)" s:width="30" s:height="40">
    <s:alias val="$dff"/>
    <s:alias val="$_DFF_"/>
    <rect width="30" height="40" x="0" y="0"/>
    <path d="M0,35 L5,30 L0,25"/>
    <g s:x="30" s:y="10" s:pid="Q"/>
    <g s:x="0" s:y="30" s:pid="CLK"/>
    <g s:x="0" s:y="10" s:pid="D"/>
  </g>
  <line x1="317" y1="41" x2="352" y2="41"/>
  <line x1="40" y1="26" x2="83" y2="26"/>
  <line x1="40" y1="85" x2="55" y2="85"/>
  <line x1="55" y1="85" x2="55" y2="41"/>
  <line x1="55" y1="41" x2="83" y2="41"/>
  <line x1="185" y1="33.5" x2="225" y2="33.5"/>
  <line x1="182" y1="112.5" x2="197" y2="112.5"/>
  <line x1="197" y1="112.5" x2="197" y2="48.5"/>
  <line x1="197" y1="48.5" x2="225" y2="48.5"/>
  <line x1="108" y1="132.5" x2="129" y2="132.5"/>
  <line x1="129" y1="132.5" x2="129" y2="53.5"/>
  <circle cx="129" cy="132.5" r="2" style="fill:#000"/>
  <line x1="129" y1="53.5" x2="155" y2="53.5"/>
  <line x1="108" y1="132.5" x2="262" y2="132.5"/>
  <line x1="262" y1="132.5" x2="262" y2="61"/>
  <line x1="262" y1="61" x2="287" y2="61"/>
  <line x1="113" y1="33.5" x2="155" y2="33.5"/>
  <line x1="252" y1="41" x2="287" y2="41"/>
</svg>
